<?xml version="1.0" encoding="UTF-8"?>
<svg version="1.1" xmlns="http://www.w3.org/2000/svg" width="510" height="510">
<path d="M0 0 C12.77448393 11.14131873 21.74458369 29.0211751 23.23046875 45.9453125 C23.37252023 50.25861214 23.37003919 54.56753455 23.35546875 58.8828125 C23.35933594 60.02427734 23.36320313 61.16574219 23.3671875 62.34179688 C23.3602973 68.30526491 23.1418898 74.05000969 22.23046875 79.9453125 C22.89433594 80.12707031 23.55820312 80.30882813 24.2421875 80.49609375 C25.12519531 80.74746094 26.00820313 80.99882813 26.91796875 81.2578125 C27.78808594 81.50144531 28.65820312 81.74507813 29.5546875 81.99609375 C32.23046875 82.9453125 32.23046875 82.9453125 34.51171875 84.4921875 C38.29974814 86.5168239 41.80809554 86.59202951 46.04296875 86.8828125 C52.48481592 87.45291504 58.7484647 88.2530758 65.04296875 89.7578125 C66.28691406 90.05300781 67.53085937 90.34820312 68.8125 90.65234375 C73.18839702 92.30768308 77.06106471 94.60650442 79.23046875 98.9453125 C79.37936086 100.85800346 79.45183795 102.77704875 79.48046875 104.6953125 C79.50625 105.72140625 79.53203125 106.7475 79.55859375 107.8046875 C78.89870418 114.12077334 75.24119932 118.55916414 71.23046875 123.2578125 C70.75134033 123.82685303 70.27221191 124.39589355 69.77856445 124.98217773 C66.61257936 128.6375406 63.30217093 131.59598925 59.41796875 134.5078125 C54.29665166 138.44337009 52.14250145 142.43397372 49.5546875 148.26953125 C47.23772594 152.95129724 44.19277565 155.19379071 39.29296875 157.0703125 C35.16259253 159.59911427 33.60637207 162.85895398 31.1484375 166.9609375 C26.60264486 174.03422789 18.81255272 184.67471027 10.17578125 186.640625 C6.90128666 187.69474206 6.90128666 187.69474206 5.796875 191.21875 C5.44248799 192.58095129 5.10892602 193.94868809 4.79296875 195.3203125 C2.3553577 204.37953952 -1.7292229 211.81041874 -7.26953125 219.3828125 C-9.02428664 221.78640237 -9.02428664 221.78640237 -8.48828125 224.23828125 C-7.44286583 228.17563387 -6.0694875 231.97558277 -4.70703125 235.8125 C-0.41553013 250.15326625 -2.40198094 264.96002073 -6.76953125 278.9453125 C-7.04667969 279.89277344 -7.32382812 280.84023438 -7.609375 281.81640625 C-9.72543918 288.0670843 -13.20161154 291.8828998 -18.0390625 296.328125 C-20.11623622 299.46967441 -19.83699313 301.14118312 -19.16137695 304.76367188 C-17.28190301 315.22783335 -18.10378763 326.2691764 -21.796875 336.18359375 C-23.80601191 341.53876897 -23.80601191 341.53876897 -22.87890625 346.9296875 C-22.4303125 347.51234375 -21.98171875 348.095 -21.51953125 348.6953125 C-15.65786135 357.36535907 -14.27706554 367.66257629 -15.76953125 377.9453125 C-17.57689837 380.6879086 -18.82568431 382.47338903 -21.76953125 383.9453125 C-23.4765586 384.01527264 -25.18621128 384.02971404 -26.89453125 384.0078125 C-27.80460938 383.99878906 -28.7146875 383.98976563 -29.65234375 383.98046875 C-30.35101563 383.96886719 -31.0496875 383.95726562 -31.76953125 383.9453125 C-31.74596558 385.04033081 -31.74596558 385.04033081 -31.72192383 386.1574707 C-31.65885311 389.52416976 -31.62031411 392.89074387 -31.58203125 396.2578125 C-31.55689453 397.40572266 -31.53175781 398.55363281 -31.50585938 399.73632812 C-31.44142957 407.3175684 -32.34652196 413.76648372 -34.76953125 420.9453125 C-35.09183716 421.94751831 -35.09183716 421.94751831 -35.4206543 422.9699707 C-35.97705924 424.64192533 -36.59008815 426.29473686 -37.20703125 427.9453125 C-37.59761719 429.0178125 -37.98820313 430.0903125 -38.390625 431.1953125 C-39.88084943 434.16731816 -40.88016192 435.35299582 -43.76953125 436.9453125 C-48.57308133 438.21660381 -52.83122724 438.17232153 -57.64453125 437.0078125 C-64.90593721 432.21528457 -66.83555852 421.54889833 -68.796875 413.48828125 C-70.77800792 403.80569329 -70.17938916 393.7680303 -69.76953125 383.9453125 C-70.52733887 383.97286621 -71.28514648 384.00041992 -72.06591797 384.02880859 C-73.05865723 384.05023926 -74.05139648 384.07166992 -75.07421875 384.09375 C-76.05890137 384.12130371 -77.04358398 384.14885742 -78.05810547 384.17724609 C-80.76953125 383.9453125 -80.76953125 383.9453125 -83.89453125 381.5703125 C-88.00250191 375.81915357 -87.17172882 369.82654723 -86.76953125 362.9453125 C-85.6572202 356.59550534 -83.16745175 351.42258729 -79.66015625 346.05078125 C-78.09799487 342.35777693 -79.66597852 339.30338037 -80.7421875 335.58203125 C-83.54026411 325.65694657 -84.1130501 316.62928405 -83.35766602 306.32104492 C-83.11328404 300.83678569 -83.35030573 297.74568418 -87.078125 293.55078125 C-88.3011281 292.34136193 -89.53079365 291.13861079 -90.76953125 289.9453125 C-99.29239911 278.07669073 -101.04342484 260.31086746 -99.35546875 246.11328125 C-96.33244677 229.76880905 -96.33244677 229.76880905 -93.578125 224.79296875 C-92.41559898 222.13656871 -92.87785929 220.67056343 -93.76953125 217.9453125 C-95.24506563 215.56618714 -95.24506563 215.56618714 -97.08203125 213.2578125 C-101.80963732 206.71860329 -104.48594039 200.50943162 -105.51953125 192.5078125 C-105.87295414 190.02750501 -105.87295414 190.02750501 -106.76953125 187.9453125 C-110.0905657 186.27216085 -110.0905657 186.27216085 -112.56640625 185.67578125 C-122.35974528 182.42869898 -130.03876832 169.3067968 -135.26953125 161.0078125 C-137.77436435 157.93939196 -139.28203144 157.02883766 -142.70703125 155.2578125 C-148.99646856 151.80755317 -151.35335998 146.5062979 -153.76953125 139.9453125 C-153.76953125 139.2853125 -153.76953125 138.6253125 -153.76953125 137.9453125 C-154.35476562 137.67589844 -154.94 137.40648437 -155.54296875 137.12890625 C-164.80603014 132.20485783 -174.91302707 121.6048214 -178.76953125 111.9453125 C-179.56875399 106.02440403 -179.98839225 100.12184999 -177.01953125 94.8203125 C-167.38020417 89.25916226 -157.50946348 88.17463965 -146.57495117 87.24755859 C-139.40125564 86.53433299 -133.98494763 84.59311894 -127.76953125 80.9453125 C-127.80071045 80.20974121 -127.83188965 79.47416992 -127.86401367 78.71630859 C-128.64816441 56.41020431 -121.7654549 27.30000016 -107.578125 9.8125 C-103.27048157 5.36530009 -98.19450465 2.22518797 -92.95703125 -0.9921875 C-92.28349609 -1.40919922 -91.60996094 -1.82621094 -90.91601562 -2.25585938 C-89.5535483 -3.0994157 -88.18927963 -3.94006942 -86.82324219 -4.77783203 C-85.44102955 -5.63719629 -84.06928832 -6.51361033 -82.70800781 -7.40576172 C-78.61972563 -10.06559614 -74.87661285 -11.946085 -70.14453125 -13.3046875 C-69.07976562 -13.61921875 -68.015 -13.93375 -66.91796875 -14.2578125 C-43.11097948 -20.28340284 -19.47316337 -14.54779039 0 0 Z M-59.5625 31.75 C-61.09546364 33.75610056 -62.4532062 35.79209069 -63.76953125 37.9453125 C-64.72859375 39.3684375 -64.72859375 39.3684375 -65.70703125 40.8203125 C-66.05765625 41.5215625 -66.40828125 42.2228125 -66.76953125 42.9453125 C-66.43953125 43.6053125 -66.10953125 44.2653125 -65.76953125 44.9453125 C-64.84140625 44.1409375 -63.91328125 43.3365625 -62.95703125 42.5078125 C-58.09742399 38.29615287 -53.13448001 38.60019685 -46.9296875 38.67578125 C-40.87007911 39.19260817 -37.97307361 42.60857962 -34.01953125 46.8203125 C-29.50699239 52.20945935 -28.16229102 56.90132581 -28.76953125 63.9453125 C-29.77960367 67.87501033 -30.66643309 71.03772614 -33.86328125 73.66796875 C-36.61813183 76.95911197 -36.2068537 80.11744688 -36.01953125 84.1953125 C-35.99246094 85.31292969 -35.99246094 85.31292969 -35.96484375 86.453125 C-35.91788774 88.28440951 -35.84614777 90.11502899 -35.76953125 91.9453125 C-26.35626325 86.62476972 -20.46941571 79.2901128 -17.51953125 68.9453125 C-15.1568007 58.00438006 -18.13777182 48.57431125 -24.03125 39.2734375 C-28.04911437 33.89220791 -33.37334603 29.16439717 -39.76953125 26.9453125 C-46.56498974 26.0280548 -54.52993586 26.68454328 -59.5625 31.75 Z M-75.76953125 56.9453125 C-77.54764086 58.92804181 -77.54764086 58.92804181 -79.33203125 61.3828125 C-82.75687302 65.93265427 -82.75687302 65.93265427 -83.76953125 66.9453125 C-83.47935028 73.90965583 -80.89986808 79.97025032 -75.80078125 84.81640625 C-72.53368794 87.35815608 -69.87274546 89.14111907 -65.76953125 89.9453125 C-64.92160869 81.7012949 -64.92160869 81.7012949 -66.8125 73.890625 C-68.07478949 72.52098538 -69.42075025 71.22986583 -70.76953125 69.9453125 C-72.57710172 65.69752189 -73.22106152 61.51589355 -73.76953125 56.9453125 C-74.42953125 56.9453125 -75.08953125 56.9453125 -75.76953125 56.9453125 Z " fill="#030303" transform="translate(306.76953125,44.0546875)"/>
<path d="M0 0 C1.68359375 1.609375 1.68359375 1.609375 3.4375 3.75 C5.39201497 6.10703716 7.2177967 8.19601703 9.5 10.25 C10.2425 11.11625 10.2425 11.11625 11 12 C10.81274414 13.95092773 10.81274414 13.95092773 10 16 C8.86109898 16.88383737 7.6884333 17.72485358 6.49609375 18.53515625 C2.33042053 22.52198124 2.27296857 26.52007516 2.09765625 31.99609375 C2.02772207 35.47784387 2.03929176 38.9553102 2.0625 42.4375 C2.0493815 44.23635392 2.03313689 46.03518793 2.01367188 47.83398438 C1.9729552 52.2232528 1.97493242 56.61063431 2 61 C0.35 61.33 -1.3 61.66 -3 62 C-2.47680176 62.26627197 -1.95360352 62.53254395 -1.41455078 62.80688477 C20.2689234 73.89193477 35.41650832 84.59925773 43.2578125 108.57421875 C43.50273437 109.37472656 43.74765625 110.17523438 44 111 C44.61875 112.8253125 44.61875 112.8253125 45.25 114.6875 C48.43712209 129.04416924 45.40118256 143.72635113 38.1875 156.375 C37.15872541 157.93937374 36.09455371 159.48092313 35 161 C34.34515625 161.91007813 33.6903125 162.82015625 33.015625 163.7578125 C27.28998693 171.31307176 27.28998693 171.31307176 22 173 C13.71719882 167.26448887 13.71719882 167.26448887 12.15625 162.3359375 C11.77788774 155.62000736 13.88652206 152.16532748 18.17578125 147.21484375 C24.7073289 139.28467776 24.94069888 129.82256853 24.22753906 119.99755859 C23.31868676 112.01877149 19.96831919 105.31202209 14 100 C6.31753877 94.34517757 -1.7268558 90.87800698 -10.6875 87.75 C-11.85861328 87.32976562 -13.02972656 86.90953125 -14.23632812 86.4765625 C-18.34386045 85.00313297 -22.45322698 83.53581601 -26.57666016 82.10742188 C-31.89049807 80.21900386 -31.89049807 80.21900386 -33 78 C-33.721875 77.73445313 -34.44375 77.46890625 -35.1875 77.1953125 C-38.7171926 75.69519314 -41.23183051 73.45824598 -44 70.875 C-44.52819336 70.38797607 -45.05638672 69.90095215 -45.60058594 69.39916992 C-49.56689629 65.64054238 -52.43533938 61.85453618 -55 57 C-55.33 59.31 -55.66 61.62 -56 64 C-56.66 64 -57.32 64 -58 64 C-58.495 65.98 -58.495 65.98 -59 68 C-61.96175123 67.38722388 -63.38058783 66.74627478 -66 65 C-66 64.34 -66 63.68 -66 63 C-67.65 62.67 -69.3 62.34 -71 62 C-71.33 63.65 -71.66 65.3 -72 67 C-72.66 67 -73.32 67 -74 67 C-74.495 68.98 -74.495 68.98 -75 71 C-77.1875 71 -77.1875 71 -80 70 C-82.82207649 66.59825374 -85 63.47899726 -85 59 C-92.26 59.66 -99.52 60.32 -107 61 C-105.20953774 64.58092453 -103.90408119 66.34109785 -101.125 69.0625 C-100.10792969 70.06990234 -100.10792969 70.06990234 -99.0703125 71.09765625 C-97.11702441 72.89247002 -95.2103707 74.53257227 -93 76 C-89.93288436 75.72117131 -88.63629294 74.75752863 -86 73 C-83.03 73 -80.06 73 -77 73 C-76.67 79.6 -76.34 86.2 -76 93 C-77.98 93 -79.96 93 -82 93 C-83.81115956 91.18884044 -83.38199448 88.38721773 -83.5625 85.9375 C-83.64628906 84.83277344 -83.73007813 83.72804688 -83.81640625 82.58984375 C-83.87699219 81.73519531 -83.93757813 80.88054687 -84 80 C-84.99 80.495 -84.99 80.495 -86 81 C-85.67 81.33 -85.34 81.66 -85 82 C-84.95919217 83.99958364 -84.95745644 86.00045254 -85 88 C-85.99 88 -86.98 88 -88 88 C-85.76511641 91.26505402 -85.76511641 91.26505402 -83 94 C-79.28926495 94.50196294 -79.28926495 94.50196294 -76 94 C-75.02391783 91.07175348 -74.91773332 89.04386724 -75 86 C-72.03 86 -69.06 86 -66 86 C-66.57142857 95.57142857 -66.57142857 95.57142857 -71 100 C-67.43270355 106.03316956 -63.38710233 111.53824725 -59 117 C-54.83809633 110.7571445 -53.83953901 102.38794325 -53 95 C-53.70125 94.979375 -54.4025 94.95875 -55.125 94.9375 C-59.23756569 93.59644597 -61.91470775 90.78645171 -64 87 C-63.84765625 84.87890625 -63.84765625 84.87890625 -63 83 C-57.39602937 79.6614643 -52.4065419 79.65195849 -46 80 C-45.67 81.98 -45.34 83.96 -45 86 C-43.35 83.36 -41.7 80.72 -40 78 C-51.22 78 -62.44 78 -74 78 C-74 76.02 -74 74.04 -74 72 C-68.72 71.34 -63.44 70.68 -58 70 C-57.505 68.515 -57.505 68.515 -57 67 C-54.69 67 -52.38 67 -50 67 C-50 67.99 -50 68.98 -50 70 C-49.43796875 70.10183594 -48.8759375 70.20367187 -48.296875 70.30859375 C-43.77103623 71.67096358 -40.18986201 74.5723843 -37 78 C-35.83066188 80.9435063 -35.95037551 83.03089648 -37 86 C-38.69260142 88.68376442 -40.55306585 90.97145355 -43 93 C-43.66 93 -44.32 93 -45 93 C-44.94779297 94.74410156 -44.94779297 94.74410156 -44.89453125 96.5234375 C-44.89917939 100.75324436 -45.62931685 104.51774365 -46.6875 108.625 C-46.94998535 109.64400391 -46.94998535 109.64400391 -47.21777344 110.68359375 C-49.05820231 117.60848842 -51.44861344 124.30783853 -54 131 C-61.88274947 129.86118292 -67.9239909 120.1989247 -72.42578125 114.20703125 C-79 104.99007444 -79 104.99007444 -79 101 C-79.94875 101.020625 -80.8975 101.04125 -81.875 101.0625 C-85 101 -85 101 -87 100 C-87 99.34 -87 98.68 -87 98 C-87.598125 97.773125 -88.19625 97.54625 -88.8125 97.3125 C-91.66630157 95.60021906 -92.57202259 93.99195267 -94 91 C-94.34578768 89.00211562 -94.68143549 87.00240549 -95 85 C-95.66 84.67 -96.32 84.34 -97 84 C-97 83.34 -97 82.68 -97 82 C-97.99 81.7215625 -97.99 81.7215625 -99 81.4375 C-108.13647019 77.05960803 -115.96272149 67.66411903 -121 59 C-121 58.01 -121 57.02 -121 56 C-118.77155786 55.3516711 -116.5422154 54.70643631 -114.3125 54.0625 C-112.45044922 53.52302734 -112.45044922 53.52302734 -110.55078125 52.97265625 C-103.40584522 51.01546255 -97.22707863 50.98855219 -89.86132812 51.390625 C-87.47990599 51.45039403 -85.34015679 51.4513605 -83 51 C-80.59888338 48.71139209 -80.59888338 48.71139209 -79 46 C-74.9096492 43.32429622 -70.73702017 43.43548464 -66 44 C-62.4375 45.5 -62.4375 45.5 -60 47 C-60.22816406 46.40832031 -60.45632812 45.81664062 -60.69140625 45.20703125 C-60.97886719 44.41683594 -61.26632813 43.62664062 -61.5625 42.8125 C-61.85253906 42.03519531 -62.14257812 41.25789063 -62.44140625 40.45703125 C-63.11072588 37.51296098 -62.97906705 35.8548497 -62 33 C-60.22265625 30.98046875 -60.22265625 30.98046875 -58.0625 29.1875 C-57.35222656 28.58292969 -56.64195312 27.97835937 -55.91015625 27.35546875 C-54 26 -54 26 -52 26 C-51.505 24.515 -51.505 24.515 -51 23 C-49.35 22.67 -47.7 22.34 -46 22 C-45.82984375 22.78503906 -45.6596875 23.57007812 -45.484375 24.37890625 C-44.04270306 30.62870747 -42.41397858 35.58472363 -39 41 C-39 41.66 -39 42.32 -39 43 C-38.10861328 43.41378906 -38.10861328 43.41378906 -37.19921875 43.8359375 C-35.11639016 44.93839384 -33.59923227 46.10564097 -31.8125 47.625 C-27.59889462 50.86315973 -23.03956411 53.0692416 -18.25 55.3125 C-17.50468018 55.66199707 -16.75936035 56.01149414 -15.99145508 56.37158203 C-12.67425898 57.89222875 -9.57069055 59.19347547 -6 60 C-5.94490271 54.87595165 -5.94268434 49.75549562 -5.98779297 44.63134766 C-5.99586451 42.89144653 -5.98991499 41.15141808 -5.96923828 39.41162109 C-5.51087273 29.32259459 -5.51087273 29.32259459 -8.8828125 20.16796875 C-11.04135865 18.04259621 -11.04135865 18.04259621 -13.3828125 16.47265625 C-13.91648437 15.98667969 -14.45015625 15.50070313 -15 15 C-14.76613762 10.62963059 -11.58849591 8.14510754 -8.625 5.25 C-8.13 4.74339844 -7.635 4.23679687 -7.125 3.71484375 C-3.38011708 0 -3.38011708 0 0 0 Z " fill="#F8F8F8" transform="translate(258,91)"/>
<path d="M0 0 C10.35191639 8.91902401 18.33679596 22.3475255 20 36 C21.04000177 50.52588902 21.39546662 65.27407351 16 79 C15.61457031 79.99644531 15.22914063 80.99289063 14.83203125 82.01953125 C9.6033984 94.38888599 1.23313375 103.48327602 -8 113 C-8.51796143 113.55768066 -9.03592285 114.11536133 -9.56958008 114.68994141 C-11 116 -11 116 -12.8125 116 C-15.39400647 114.81988276 -17.25069568 113.11781081 -19.37109375 111.2578125 C-21.96820648 109.25236813 -24.98115439 108.24917749 -28 107 C-29.49743759 106.19996304 -30.97693412 105.36552052 -32.4375 104.5 C-33.11683594 104.0978125 -33.79617188 103.695625 -34.49609375 103.28125 C-34.99238281 102.8584375 -35.48867188 102.435625 -36 102 C-36 101.01 -36 100.02 -36 99 C-35.09378906 98.64808594 -34.18757813 98.29617187 -33.25390625 97.93359375 C-25.59739465 94.83047847 -19.10943602 91.70765493 -13 86 C-12.30261719 85.36707031 -11.60523438 84.73414063 -10.88671875 84.08203125 C-2.13846818 75.30083058 1.5462955 64.53787225 1.625 52.375 C1.33593026 38.90166113 -2.4518831 27.72641887 -11.984375 17.96875 C-20.75491586 9.94608471 -28.38144653 7.62767908 -40.2109375 7.71484375 C-48.16694445 8.31359479 -55.54089994 9.97657086 -61 16 C-62.17999414 17.73009456 -63.30741606 19.49678135 -64.390625 21.2890625 C-65.01839844 22.31386719 -65.64617187 23.33867188 -66.29296875 24.39453125 C-67.58307491 26.52410768 -68.87216159 28.6543021 -70.16015625 30.78515625 C-75.5572014 39.58970446 -81.18580222 48.18099884 -89.359375 54.6484375 C-91.10014231 56.03650388 -91.10014231 56.03650388 -92.9140625 57.9296875 C-95.04627761 60.04593096 -97.26005657 61.89917471 -99.625 63.75 C-100.40101563 64.36359375 -101.17703125 64.9771875 -101.9765625 65.609375 C-104 67 -104 67 -106 67 C-106 67.66 -106 68.32 -106 69 C-106.99 69 -107.98 69 -109 69 C-110.15745666 51.05942178 -103.50564874 24.08154025 -92 10 C-86.19326368 3.63132146 -78.51556918 -0.90156638 -71 -5 C-70.34 -5 -69.68 -5 -69 -5 C-69 -5.66 -69 -6.32 -69 -7 C-44.47219533 -17.95923188 -22.10905194 -15.54581486 0 0 Z " fill="#F7F7F7" transform="translate(299,53)"/>
<path d="M0 0 C0.83789062 -0.06058594 1.67578125 -0.12117187 2.5390625 -0.18359375 C5.69474299 0.50752636 6.38550047 1.2360844 8.6328125 3.4296875 C12.78190439 7.23611639 16.18664146 7.14584203 21.625 7 C32.11298595 7.08559613 41.39421564 9.37777991 51.375 12.4375 C50.49224305 16.98690384 47.86051441 19.78504228 44.875 23.1875 C44.06784546 24.11695435 44.06784546 24.11695435 43.24438477 25.06518555 C32.32543924 37.45402025 32.32543924 37.45402025 26.375 39.4375 C25.15327136 42.29143904 25.15327136 42.29143904 24.125 45.6875 C21.86458588 51.87818371 20.29177328 54.53101488 14.375 57.4375 C10.9375 58.25 10.9375 58.25 8.375 58.4375 C8.26542969 58.99695313 8.15585937 59.55640625 8.04296875 60.1328125 C4.78445111 71.37565115 -5.45735279 79.67766874 -13.625 87.4375 C-16.625 86.4375 -16.625 86.4375 -17.59228516 84.6184082 C-18.4961825 82.00043578 -19.39480742 79.38440976 -20.25 76.75 C-20.56267822 75.80423096 -20.87535645 74.85846191 -21.19750977 73.8840332 C-23.57822943 66.3424203 -24.71842532 59.37865228 -24.625 51.4375 C-22.645 51.4375 -20.665 51.4375 -18.625 51.4375 C-16.05218118 58.66589572 -14.25804408 65.94402821 -12.625 73.4375 C-8.27410713 70.11393533 -8.27410713 70.11393533 -5.625 65.4375 C-4.965 65.4375 -4.305 65.4375 -3.625 65.4375 C-3.356875 64.715625 -3.08875 63.99375 -2.8125 63.25 C-1.63517502 60.46159874 -0.23354116 57.99654276 1.375 55.4375 C0.941875 55.025 0.50875 54.6125 0.0625 54.1875 C-3.11166587 50.89577243 -5.05040281 48.71266245 -5 44 C-4.87625 42.824375 -4.7525 41.64875 -4.625 40.4375 C-0.995 40.4375 2.635 40.4375 6.375 40.4375 C6.045 38.7875 5.715 37.1375 5.375 35.4375 C-1.885 35.4375 -9.145 35.4375 -16.625 35.4375 C-16.625 36.0975 -16.625 36.7575 -16.625 37.4375 C-14.9853125 37.623125 -14.9853125 37.623125 -13.3125 37.8125 C-9.625 38.4375 -9.625 38.4375 -6.625 40.4375 C-7.15062827 44.22202355 -7.89014133 46.70264133 -10.625 49.4375 C-12.75 50.1875 -12.75 50.1875 -15.625 50.4375 C-16.32238281 50.50066406 -17.01976562 50.56382812 -17.73828125 50.62890625 C-23.19022103 50.91295689 -26.40701656 50.23368509 -30.625 46.4375 C-31.5 44.1875 -31.5 44.1875 -31.625 42.4375 C-32.285 42.4375 -32.945 42.4375 -33.625 42.4375 C-33.625 39.7975 -33.625 37.1575 -33.625 34.4375 C-32.965 34.4375 -32.305 34.4375 -31.625 34.4375 C-29.23744868 32.24891129 -27.12905289 30.12395878 -25.2109375 27.51171875 C-23.77455435 25.59526102 -22.48212904 23.9537068 -20.625 22.4375 C-17.05205543 22.4375 -14.80051166 22.84974417 -11.625 24.4375 C-11.625 25.7575 -11.625 27.0775 -11.625 28.4375 C-6.015 28.4375 -0.405 28.4375 5.375 28.4375 C4.55 27.15875 3.725 25.88 2.875 24.5625 C0.375 20.6875 0.375 20.6875 0.375 18.4375 C-1.2028125 19.3965625 -1.2028125 19.3965625 -2.8125 20.375 C-5.73328412 22.05504452 -8.2421743 23.02746052 -11.625 23.4375 C-13.98116475 19.90325288 -13.9231228 18.25105898 -13.9375 14.0625 C-13.95425781 12.94101563 -13.97101563 11.81953125 -13.98828125 10.6640625 C-13.58948952 7.12210581 -12.78997989 5.24528865 -10.625 2.4375 C-8 1.6875 -8 1.6875 -5.625 1.4375 C-4.00106095 -0.18643905 -2.24052751 0.11168793 0 0 Z " fill="#E6E6E6" transform="translate(325.625,134.5625)"/>
<path d="M0 0 C3.55884751 0.65904584 6.10622436 1.81202329 9 4 C10.32216501 5.93588023 11.4808066 7.90192367 12.59375 9.96484375 C13.93906227 12.21432918 13.93906227 12.21432918 16.6640625 13.58203125 C19.37318792 16.38629318 19.33484088 16.87861181 19.3046875 20.609375 C19.18473243 22.65774573 19.03903204 24.70468698 18.875 26.75 C18.73142155 29.18587669 18.59390695 31.6221149 18.4609375 34.05859375 C18.40211395 35.07387398 18.40211395 35.07387398 18.34210205 36.10966492 C17.83117737 45.28798779 17.71927764 54.47774767 17.55645752 63.66748047 C17.46281436 68.88396103 17.35698594 74.10018451 17.25 79.31640625 C17.22934479 80.32454376 17.20868958 81.33268127 17.18740845 82.37136841 C17.00699667 90.9992858 16.7800078 99.62475967 16.5 108.25 C16.46455078 109.3944458 16.42910156 110.5388916 16.39257812 111.71801758 C16.28604638 114.81374612 16.15248577 117.90621639 16 121 C15.95029053 122.10118164 15.90058105 123.20236328 15.84936523 124.33691406 C15.78434814 125.41166992 15.71933105 126.48642578 15.65234375 127.59375 C15.59812256 128.55474609 15.54390137 129.51574219 15.48803711 130.50585938 C14.92965426 133.35950581 14.24148378 134.37094268 12.0625 136.25 C9 138 9 138 7 138 C6.67 98.73 6.34 59.46 6 19 C4.68 18.67 3.36 18.34 2 18 C1.67 57.93 1.34 97.86 1 139 C-5 136 -5 136 -7 134 C-8.15493413 128.15556825 -8.2915853 122.2542135 -8.5 116.3125 C-8.54060547 115.22324219 -8.58121094 114.13398438 -8.62304688 113.01171875 C-8.89062522 105.38779412 -9.08261648 97.76339526 -9.25 90.13671875 C-9.27098755 89.18243484 -9.2919751 88.22815094 -9.31359863 87.24494934 C-9.41739937 82.4671902 -9.51604415 77.68938972 -9.60742188 72.91137695 C-9.79217688 63.67043331 -10.09480877 54.45709882 -10.64494324 45.23045349 C-11.0231089 38.84157703 -11.24937943 32.46292574 -11.3125 26.0625 C-11.34150391 25.02416016 -11.37050781 23.98582031 -11.40039062 22.91601562 C-11.41295898 21.42811523 -11.41295898 21.42811523 -11.42578125 19.91015625 C-11.44036377 19.03496338 -11.45494629 18.15977051 -11.4699707 17.25805664 C-11 15 -11 15 -9.09838867 13.19311523 C-7 12 -7 12 -5 12 C-4.731875 11.319375 -4.46375 10.63875 -4.1875 9.9375 C-2.83946694 6.60289191 -1.42463702 3.30256763 0 0 Z " fill="#F5F5F5" transform="translate(252,183)"/>
<path d="M0 0 C3.58078756 1.97308702 4.62002664 3.68611293 6.25 7.375 C7.27786518 11.56552726 6.79236125 14.45430478 6.0625 18.6875 C5.4025 18.6875 4.7425 18.6875 4.0625 18.6875 C3.7325 20.0075 3.4025 21.3275 3.0625 22.6875 C0.10074877 22.07472388 -1.31808783 21.43377478 -3.9375 19.6875 C-3.9375 19.0275 -3.9375 18.3675 -3.9375 17.6875 C-5.5875 17.3575 -7.2375 17.0275 -8.9375 16.6875 C-9.4325 19.1625 -9.4325 19.1625 -9.9375 21.6875 C-10.5975 21.6875 -11.2575 21.6875 -11.9375 21.6875 C-12.2675 23.0075 -12.5975 24.3275 -12.9375 25.6875 C-15.125 25.6875 -15.125 25.6875 -17.9375 24.6875 C-20.75957649 21.28575374 -22.9375 18.16649726 -22.9375 13.6875 C-33.8275 14.6775 -33.8275 14.6775 -44.9375 15.6875 C-43.14703774 19.26842453 -41.84158119 21.02859785 -39.0625 23.75 C-38.38445312 24.42160156 -37.70640625 25.09320313 -37.0078125 25.78515625 C-35.05452441 27.57997002 -33.1478707 29.22007227 -30.9375 30.6875 C-27.87038436 30.40867131 -26.57379294 29.44502863 -23.9375 27.6875 C-20.9675 27.6875 -17.9975 27.6875 -14.9375 27.6875 C-14.6075 34.2875 -14.2775 40.8875 -13.9375 47.6875 C-15.9175 47.6875 -17.8975 47.6875 -19.9375 47.6875 C-21.74865956 45.87634044 -21.31949448 43.07471773 -21.5 40.625 C-21.58378906 39.52027344 -21.66757813 38.41554687 -21.75390625 37.27734375 C-21.84478516 35.99537109 -21.84478516 35.99537109 -21.9375 34.6875 C-22.9275 35.1825 -22.9275 35.1825 -23.9375 35.6875 C-23.6075 36.0175 -23.2775 36.3475 -22.9375 36.6875 C-22.89669217 38.68708364 -22.89495644 40.68795254 -22.9375 42.6875 C-23.9275 42.6875 -24.9175 42.6875 -25.9375 42.6875 C-23.70261641 45.95255402 -23.70261641 45.95255402 -20.9375 48.6875 C-17.22676495 49.18946294 -17.22676495 49.18946294 -13.9375 48.6875 C-12.96141783 45.75925348 -12.85523332 43.73136724 -12.9375 40.6875 C-9.9675 40.6875 -6.9975 40.6875 -3.9375 40.6875 C-4.50892857 50.25892857 -4.50892857 50.25892857 -8.9375 54.6875 C-5.37020355 60.72066956 -1.32460233 66.22574725 3.0625 71.6875 C7.22440367 65.4446445 8.22296099 57.07544325 9.0625 49.6875 C8.010625 49.6565625 8.010625 49.6565625 6.9375 49.625 C2.82493431 48.28394597 0.14779225 45.47395171 -1.9375 41.6875 C-1.78515625 39.56640625 -1.78515625 39.56640625 -0.9375 37.6875 C4.66647063 34.3489643 9.6559581 34.33945849 16.0625 34.6875 C16.5575 37.6575 16.5575 37.6575 17.0625 40.6875 C18.7125 38.0475 20.3625 35.4075 22.0625 32.6875 C10.8425 32.6875 -0.3775 32.6875 -11.9375 32.6875 C-11.9375 30.7075 -11.9375 28.7275 -11.9375 26.6875 C-6.6575 26.0275 -1.3775 25.3675 4.0625 24.6875 C4.5575 23.2025 4.5575 23.2025 5.0625 21.6875 C7.3725 21.6875 9.6825 21.6875 12.0625 21.6875 C12.0625 22.6775 12.0625 23.6675 12.0625 24.6875 C12.62453125 24.78933594 13.1865625 24.89117187 13.765625 24.99609375 C18.29146377 26.35846358 21.87263799 29.2598843 25.0625 32.6875 C26.23183812 35.6310063 26.11212449 37.71839648 25.0625 40.6875 C23.36989858 43.37126442 21.50943415 45.65895355 19.0625 47.6875 C18.4025 47.6875 17.7425 47.6875 17.0625 47.6875 C17.11470703 49.43160156 17.11470703 49.43160156 17.16796875 51.2109375 C17.16332061 55.44074436 16.43318315 59.20524365 15.375 63.3125 C15.11251465 64.33150391 15.11251465 64.33150391 14.84472656 65.37109375 C13.00429769 72.29598842 10.61388656 78.99533853 8.0625 85.6875 C0.17975053 84.54868292 -5.8614909 74.8864247 -10.36328125 68.89453125 C-16.9375 59.67757444 -16.9375 59.67757444 -16.9375 55.6875 C-17.88625 55.708125 -18.835 55.72875 -19.8125 55.75 C-22.9375 55.6875 -22.9375 55.6875 -24.9375 54.6875 C-24.9375 54.0275 -24.9375 53.3675 -24.9375 52.6875 C-25.535625 52.460625 -26.13375 52.23375 -26.75 52 C-29.60380157 50.28771906 -30.50952259 48.67945267 -31.9375 45.6875 C-32.28328768 43.68961562 -32.61893549 41.68990549 -32.9375 39.6875 C-33.5975 39.3575 -34.2575 39.0275 -34.9375 38.6875 C-34.9375 38.0275 -34.9375 37.3675 -34.9375 36.6875 C-35.9275 36.4090625 -35.9275 36.4090625 -36.9375 36.125 C-46.07397019 31.74710803 -53.90022149 22.35161903 -58.9375 13.6875 C-58.9375 12.6975 -58.9375 11.7075 -58.9375 10.6875 C-56.70905786 10.0391711 -54.4797154 9.39393631 -52.25 8.75 C-51.00863281 8.39035156 -49.76726562 8.03070313 -48.48828125 7.66015625 C-41.34334522 5.70296255 -35.16457863 5.67605219 -27.79882812 6.078125 C-25.41740599 6.13789403 -23.27765679 6.1388605 -20.9375 5.6875 C-18.53638338 3.39889209 -18.53638338 3.39889209 -16.9375 0.6875 C-11.85573864 -2.63017852 -5.4951029 -2.18424592 0 0 Z " fill="#E5E5E5" transform="translate(195.9375,136.3125)"/>
<path d="M0 0 C3.5545976 0.87305906 5.08133527 1.26522198 7.5625 3.875 C8.09375 7.23828125 8.09375 7.23828125 8.0625 11.1875 C8.0728125 12.48300781 8.083125 13.77851563 8.09375 15.11328125 C7.49014973 19.38730378 6.10098506 21.4451385 3.5625 24.875 C0.86873768 31.67293793 0.52326593 39.10325589 3.33984375 45.90234375 C6.85967175 51.58129946 13.45597946 54.82922137 19 58.25 C29.09508574 64.55057946 39.51982475 73.30734508 43.5625 84.875 C45.88319988 95.94036609 43.98110558 105.43664721 38.09765625 114.9765625 C36.5625 116.875 36.5625 116.875 33.5625 117.875 C33.46355106 111.15746628 33.55055683 104.61797146 34.3125 97.9375 C34.62487036 93.99974025 34.67547409 92.15743524 33.1875 88.4375 C27.37142511 82.75990308 20.73314123 79.32896573 13.33984375 76.09375 C10.59222973 74.88804596 7.88466441 73.62701698 5.1875 72.3125 C4.41664063 71.93996094 3.64578125 71.56742187 2.8515625 71.18359375 C-2.09810716 68.35400444 -5.15892591 65.22736391 -8.125 60.375 C-8.99705078 58.96734375 -8.99705078 58.96734375 -9.88671875 57.53125 C-10.39847656 56.6546875 -10.91023437 55.778125 -11.4375 54.875 C-11.81519531 54.2459375 -12.19289062 53.616875 -12.58203125 52.96875 C-15.16909218 46.63694792 -14.65254885 39.29496548 -14.6875 32.5625 C-14.7184375 31.09006836 -14.7184375 31.09006836 -14.75 29.58789062 C-14.80788336 18.65517135 -12.0343432 9.59424536 -4.99609375 1.14453125 C-3.4375 -0.125 -3.4375 -0.125 0 0 Z " fill="#F6F6F6" transform="translate(233.4375,266.125)"/>
<path d="M0 0 C5.05485927 0.73094706 9.59903179 2.68380904 14.3125 4.5625 C15.56643555 5.0565332 15.56643555 5.0565332 16.84570312 5.56054688 C18.89863546 6.36998877 20.94997286 7.18323457 23 8 C23 8.99 23 9.98 23 11 C22.195625 11.28875 21.39125 11.5775 20.5625 11.875 C17.8673532 12.73262568 17.8673532 12.73262568 17 15 C16.236875 15.4125 15.47375 15.825 14.6875 16.25 C11.45478985 18.35502056 10.06878466 20.78981691 8 24 C7.34 24 6.68 24 6 24 C2.23976394 34.36303153 0.77007233 46.96985719 4.5625 57.5625 C6.17316387 60.87418389 7.96159401 63.01371959 10.625 65.52734375 C14.47594848 69.83548246 14.7412064 73.22816132 14.61523438 78.87890625 C14.55658203 79.90886719 14.49792969 80.93882812 14.4375 82 C14.40591797 83.06089844 14.37433594 84.12179687 14.34179688 85.21484375 C14.25987829 87.81283304 14.14527125 90.40491272 14 93 C0.72238678 87.78932869 -6.45109494 78.62498448 -12.87109375 66.15234375 C-18.01380145 51.79191084 -16.81264358 30.011236 -11 16 C-7.88781249 10.27376657 -4.03273402 5.10349444 0 0 Z " fill="#F7F7F7" transform="translate(226,174)"/>
<path d="M0 0 C0.33 30.36 0.66 60.72 1 92 C2.32 92.33 3.64 92.66 5 93 C5.33 62.64 5.66 32.28 6 1 C10 2 10 2 11.73345947 3.65829468 C13.41037385 6.75873974 13.32981143 8.94826878 13.26464844 12.46728516 C13.24762878 13.78451569 13.23060913 15.10174622 13.21307373 16.45889282 C13.17889153 17.90229186 13.14431408 19.34568158 13.109375 20.7890625 C13.08380864 22.29045565 13.05951979 23.79187104 13.03643799 25.29330444 C12.97157791 29.26538066 12.88788941 33.23685566 12.80072021 37.20849609 C12.71803567 41.14790218 12.65520529 45.08761952 12.58984375 49.02734375 C12.46012136 56.61627943 12.29054626 64.20377769 12.10128784 71.79144287 C12.03405757 74.50746416 11.97666372 77.22309382 11.92483521 79.93951416 C11.85735983 83.47587302 11.76951505 87.01112866 11.67578125 90.546875 C11.66089661 91.54949371 11.64601196 92.55211243 11.63067627 93.58511353 C11.31041355 103.75686075 8.00367324 112.73823893 4 122 C3.34 122 2.68 122 2 122 C-4.41547241 106.10464898 -6.15923281 91.73847669 -6.4375 74.6875 C-6.49902814 72.37426931 -6.5634663 70.06111413 -6.63085938 67.74804688 C-6.78731842 62.16578536 -6.90839265 56.58368358 -7 51 C-7.18248291 51.57242432 -7.36496582 52.14484863 -7.55297852 52.73461914 C-7.80490967 53.47317139 -8.05684082 54.21172363 -8.31640625 54.97265625 C-8.56076416 55.71008057 -8.80512207 56.44750488 -9.05688477 57.20727539 C-9.36811279 57.79887451 -9.67934082 58.39047363 -10 59 C-10.969375 59.144375 -11.93875 59.28875 -12.9375 59.4375 C-14.4534375 59.7159375 -14.4534375 59.7159375 -16 60 C-17.7787408 62.83945779 -18.91435524 65.83885791 -20 69 C-20.66 69 -21.32 69 -22 69 C-23.82987418 61.51415109 -22.22799577 54.79915316 -18.34375 48.17578125 C-13.3069582 40.86603044 -13.3069582 40.86603044 -10 38 C-9.34 38 -8.68 38 -8 38 C-7.67 38.66 -7.34 39.32 -7 40 C-7.02618408 39.03698975 -7.05236816 38.07397949 -7.0793457 37.08178711 C-7.1703596 33.48323113 -7.22743223 29.88477525 -7.2746582 26.28540039 C-7.29968689 24.73249155 -7.33372131 23.17969916 -7.37719727 21.62719727 C-7.77467548 7.06078984 -7.77467548 7.06078984 -4.60546875 2.44140625 C-2 0 -2 0 0 0 Z " fill="#F2F2F2" transform="translate(253,351)"/>
<path d="M0 0 C3.25 1 3.25 1 5.25 2 C5.25 3.32 5.25 4.64 5.25 6 C6.69632812 5.98259766 6.69632812 5.98259766 8.171875 5.96484375 C9.43515625 5.95582031 10.6984375 5.94679687 12 5.9375 C13.25296875 5.92589844 14.5059375 5.91429687 15.796875 5.90234375 C21.01310249 6.0498615 21.01310249 6.0498615 23.25 7 C24.31375135 10.19125404 24.38335484 12.52470971 24.375 15.875 C24.37886719 17.41800781 24.37886719 17.41800781 24.3828125 18.9921875 C24.25995061 21.774648 23.87944236 24.29239874 23.25 27 C25.23 27 27.21 27 29.25 27 C29.58 22.71 29.91 18.42 30.25 14 C31.24 14.33 32.23 14.66 33.25 15 C32.59 17.31 31.93 19.62 31.25 22 C31.87648438 21.69964844 32.50296875 21.39929688 33.1484375 21.08984375 C33.96570313 20.70957031 34.78296875 20.32929688 35.625 19.9375 C36.43710937 19.55464844 37.24921875 19.17179687 38.0859375 18.77734375 C38.80007813 18.52082031 39.51421875 18.26429688 40.25 18 C40.91 18.33 41.57 18.66 42.25 19 C38.9556594 30.68365518 38.9556594 30.68365518 33.06640625 34.20703125 C30.49516967 35.32952808 28.03718469 35.79605966 25.25 36 C25.14042969 36.55945313 25.03085937 37.11890625 24.91796875 37.6953125 C21.65945111 48.93815115 11.41764721 57.24016874 3.25 65 C0.25 64 0.25 64 -0.71728516 62.1809082 C-1.6211825 59.56293578 -2.51980742 56.94690976 -3.375 54.3125 C-3.68767822 53.36673096 -4.00035645 52.42096191 -4.32250977 51.4465332 C-6.70322943 43.9049203 -7.84342532 36.94115228 -7.75 29 C-5.77 29 -3.79 29 -1.75 29 C0.82281882 36.22839572 2.61695592 43.50652821 4.25 51 C8.60089287 47.67643533 8.60089287 47.67643533 11.25 43 C11.91 43 12.57 43 13.25 43 C13.518125 42.278125 13.78625 41.55625 14.0625 40.8125 C15.23982498 38.02409874 16.64145884 35.55904276 18.25 33 C17.816875 32.5875 17.38375 32.175 16.9375 31.75 C13.76333413 28.45827243 11.82459719 26.27516245 11.875 21.5625 C11.99875 20.386875 12.1225 19.21125 12.25 18 C15.88 18 19.51 18 23.25 18 C22.92 16.35 22.59 14.7 22.25 13 C14.99 13 7.73 13 0.25 13 C0.25 13.66 0.25 14.32 0.25 15 C1.343125 15.12375 2.43625 15.2475 3.5625 15.375 C7.25 16 7.25 16 10.25 18 C9.72437173 21.78452355 8.98485867 24.26514133 6.25 27 C4.125 27.75 4.125 27.75 1.25 28 C0.55261719 28.06316406 -0.14476562 28.12632812 -0.86328125 28.19140625 C-6.31522103 28.47545689 -9.53201656 27.79618509 -13.75 24 C-14.625 21.75 -14.625 21.75 -14.75 20 C-15.41 20 -16.07 20 -16.75 20 C-16.75 17.36 -16.75 14.72 -16.75 12 C-16.09 12 -15.43 12 -14.75 12 C-12.36244868 9.81141129 -10.25405289 7.68645878 -8.3359375 5.07421875 C-4.53281563 0 -4.53281563 0 0 0 Z " fill="#F5F5F5" transform="translate(308.75,157)"/>
<path d="M0 0 C2.3419596 2.22275806 4.21860503 4.58577739 6.125 7.1875 C10.99432622 13.5011179 16.34293516 19.32674403 24 22 C24 22.66 24 23.32 24 24 C25.14726562 24.27070313 26.29453125 24.54140625 27.4765625 24.8203125 C31.87533262 25.92145645 36.11137795 27.33941271 40.375 28.875 C41.11161865 29.13748535 41.8482373 29.3999707 42.60717773 29.67041016 C48.12453222 31.65019169 53.59048213 33.74049622 59 36 C55.52176885 37.15941038 53.54104422 36.70820884 50 36 C49.505 36.99 49.505 36.99 49 38 C48.34 38 47.68 38 47 38 C47 37.01 47 36.02 47 35 C46.3090625 34.8865625 45.618125 34.773125 44.90625 34.65625 C40.46428923 33.6532266 36.37326236 31.85093721 32.15625 30.15625 C29.41545875 29.15219776 26.87227096 28.47156687 24 28 C16.93854652 37.45943299 12.43524881 45.05799385 11 57 C9 55 9 55 8.98828125 52.8984375 C9.21231036 51.15478927 9.43765459 49.41130969 9.6640625 47.66796875 C10.03010949 45.07357954 10.03010949 45.07357954 10.0859375 42.73828125 C10.22704301 39.88903529 10.42588506 37.64649619 12.36328125 35.46484375 C13.85626016 34.2426677 15.42553784 33.11524403 17 32 C18.67246302 28.65507396 19.01542473 25.55079341 18 22 C14.58649766 18.32715559 10.75954515 15.58651505 6 14 C6 13.01 6 12.02 6 11 C3.6568787 11.25561323 1.32156597 11.59270772 -1 12 C-1.33 12.66 -1.66 13.32 -2 14 C-4.328125 14.6328125 -4.328125 14.6328125 -7.25 15.125 C-8.20390625 15.29257813 -9.1578125 15.46015625 -10.140625 15.6328125 C-12.80099245 15.97444439 -15.32205635 16.06841462 -18 16 C-18 17.98 -18 19.96 -18 22 C-6.78 22 4.44 22 16 22 C14.44253506 25.11492987 12.87174088 28.07031862 11 31 C10.67 31 10.34 31 10 31 C10 28.69 10 26.38 10 24 C3.69732561 24.36776168 -1.33251843 25.16625922 -7 28 C-6.42274324 31.89648316 -4.68124732 34.1697945 -2 37 C0.61818456 38.33298974 0.61818456 38.33298974 3 39 C3.2248832 44.4042243 2.4886411 48.81275243 1 53.9375 C0.80921875 54.62134766 0.6184375 55.30519531 0.421875 56.00976562 C-0.04404937 57.67544526 -0.52088411 59.33806675 -1 61 C-1.99 61 -2.98 61 -4 61 C-9.22164685 55.76763108 -13.0150582 49.71611906 -16 43 C-15.38125 42.525625 -14.7625 42.05125 -14.125 41.5625 C-11.09803796 37.91233989 -10.81968861 34.64490212 -10 30 C-12.97 30 -15.94 30 -19 30 C-18.79375 31.11375 -18.5875 32.2275 -18.375 33.375 C-18.25125 34.57125 -18.1275 35.7675 -18 37 C-20 39 -20 39 -23.3125 39.4375 C-27 39 -27 39 -29.9375 36.625 C-32 34 -32 34 -32 32 C-31.01 32 -30.02 32 -29 32 C-29.66 29.36 -30.32 26.72 -31 24 C-30.01 24 -29.02 24 -28 24 C-26.78306124 26.43387753 -26.68040104 28.41838846 -26.4375 31.125 C-26.31181641 32.49011719 -26.31181641 32.49011719 -26.18359375 33.8828125 C-26.09271484 34.93082031 -26.09271484 34.93082031 -26 36 C-24.02 36.33 -22.04 36.66 -20 37 C-20.33 36.01 -20.66 35.02 -21 34 C-21.07973476 32.66474283 -21.10771338 31.32587917 -21.09765625 29.98828125 C-21.09443359 29.23095703 -21.09121094 28.47363281 -21.08789062 27.69335938 C-21.07951172 26.90767578 -21.07113281 26.12199219 -21.0625 25.3125 C-21.05798828 24.51521484 -21.05347656 23.71792969 -21.04882812 22.89648438 C-21.0370585 20.93095743 -21.01912348 18.96546915 -21 17 C-26.30750819 17.32888405 -29.78452259 17.56516656 -34 21 C-38.00116505 20.677466 -40.15643747 18.33600107 -43 15.6875 C-43.845625 14.90761719 -44.69125 14.12773437 -45.5625 13.32421875 C-47.74139441 11.24658706 -49.88351449 9.14098187 -52 7 C-51.67 6.01 -51.34 5.02 -51 4 C-43.63959083 3.20274098 -36.40239645 2.87113817 -29 3 C-28.69707031 3.69867188 -28.39414063 4.39734375 -28.08203125 5.1171875 C-27.66308594 6.02726563 -27.24414062 6.93734375 -26.8125 7.875 C-26.20341797 9.23238281 -26.20341797 9.23238281 -25.58203125 10.6171875 C-23.69153541 13.46460099 -22.22737959 14.05619488 -19 15 C-18.814375 14.0409375 -18.814375 14.0409375 -18.625 13.0625 C-18.41875 12.381875 -18.2125 11.70125 -18 11 C-17.34 10.67 -16.68 10.34 -16 10 C-15.34786708 7.97536745 -15.34786708 7.97536745 -15 6 C-12.525 6.495 -12.525 6.495 -10 7 C-10 7.66 -10 8.32 -10 9 C-7.66785852 10.20628008 -5.50357861 11.1654738 -3 12 C-2.67 10.68 -2.34 9.36 -2 8 C-1.34 8 -0.68 8 0 8 C0 5.36 0 2.72 0 0 Z " fill="#171717" transform="translate(202,147)"/>
<path d="M0 0 C2.31 0 4.62 0 7 0 C7 0.99 7 1.98 7 3 C7.56203125 3.10183594 8.1240625 3.20367187 8.703125 3.30859375 C13.22896377 4.67096358 16.81013799 7.5723843 20 11 C21.16933812 13.9435063 21.04962449 16.03089648 20 19 C18.30739858 21.68376442 16.44693415 23.97145355 14 26 C13.34 26 12.68 26 12 26 C12.05220703 27.74410156 12.05220703 27.74410156 12.10546875 29.5234375 C12.10082061 33.75324436 11.37068315 37.51774365 10.3125 41.625 C10.13750977 42.30433594 9.96251953 42.98367187 9.78222656 43.68359375 C7.94179769 50.60848842 5.55138656 57.30783853 3 64 C-4.88274947 62.86118292 -10.9239909 53.1989247 -15.42578125 47.20703125 C-22 37.99007444 -22 37.99007444 -22 34 C-22.94875 34.020625 -23.8975 34.04125 -24.875 34.0625 C-28 34 -28 34 -30 33 C-30 32.34 -30 31.68 -30 31 C-30.63421875 30.76539063 -31.2684375 30.53078125 -31.921875 30.2890625 C-34 29 -34 29 -34.828125 26.8359375 C-34.96734375 26.02382812 -35.1065625 25.21171875 -35.25 24.375 C-35.47429687 23.14910156 -35.47429687 23.14910156 -35.703125 21.8984375 C-35.85007813 20.95871094 -35.85007813 20.95871094 -36 20 C-32.65340142 20.56612696 -31.32058732 21.46222353 -29.1875 24.0625 C-26.58821343 26.84792474 -26.22080052 26.97863221 -22.125 27.375 C-20.578125 27.189375 -20.578125 27.189375 -19 27 C-18.02391783 24.07175348 -17.91773332 22.04386724 -18 19 C-15.03 19 -12.06 19 -9 19 C-9.57142857 28.57142857 -9.57142857 28.57142857 -14 33 C-10.43270355 39.03316956 -6.38710233 44.53824725 -2 50 C2.16190367 43.7571445 3.16046099 35.38794325 4 28 C3.29875 27.979375 2.5975 27.95875 1.875 27.9375 C-2.23756569 26.59644597 -4.91470775 23.78645171 -7 20 C-6.84765625 17.87890625 -6.84765625 17.87890625 -6 16 C-0.39602937 12.6614643 4.5934581 12.65195849 11 13 C11.495 15.97 11.495 15.97 12 19 C13.65 16.36 15.3 13.72 17 11 C5.78 11 -5.44 11 -17 11 C-17 9.02 -17 7.04 -17 5 C-11.72 4.34 -6.44 3.68 -1 3 C-0.67 2.01 -0.34 1.02 0 0 Z " fill="#EAEAEA" transform="translate(201,158)"/>
<path d="M0 0 C6.83750999 1.7093775 12.08587612 6.0467803 15.9140625 11.953125 C23.42963725 26.68809422 24.10204181 41.06945864 19.13061523 56.69702148 C16.99674702 62.80518902 13.88437577 67.59424309 8.9375 71.75 C7.93009766 72.60851562 7.93009766 72.60851562 6.90234375 73.484375 C2.48969072 77 2.48969072 77 -1 77 C-1.61875 75.948125 -1.61875 75.948125 -2.25 74.875 C-4.54817704 71.09942343 -7.57329087 68.73197906 -11 66 C-9.59307956 62.48269889 -8.37108154 61.56604348 -5 60 C1.14778739 54.37801021 5.3154075 47.79214751 6.5 39.5 C5.84838046 34.93866323 4.33725235 30.97503501 2 27 C1.34 26.67 0.68 26.34 0 26 C0 17.42 0 8.84 0 0 Z " fill="#F7F7F7" transform="translate(271,261)"/>
<path d="M0 0 C7.62363183 3.39555626 16.42508491 7.63176685 21.19140625 14.7890625 C23.81564684 21.96452227 20.82825268 31.8088728 19 39 C18.67 39 18.34 39 18 39 C18.01571045 38.32420898 18.0314209 37.64841797 18.04760742 36.95214844 C18.11003867 33.88485103 18.14901647 30.81768741 18.1875 27.75 C18.21263672 26.68652344 18.23777344 25.62304688 18.26367188 24.52734375 C18.27333984 23.50253906 18.28300781 22.47773438 18.29296875 21.421875 C18.3086792 20.47924805 18.32438965 19.53662109 18.34057617 18.56542969 C17.93597761 15.51774392 17.12489009 14.19419687 15 12 C14.01 11.67 13.02 11.34 12 11 C12 41.36 12 71.72 12 103 C10.02 103.495 10.02 103.495 8 104 C5.36938902 101.36938902 5.76382953 99.49272026 5.75115967 95.91271973 C5.75835022 95.05964233 5.76554077 94.20656494 5.77294922 93.32763672 C5.77265717 92.43001617 5.77236511 91.53239563 5.77206421 90.60757446 C5.77346097 87.63151485 5.78903844 84.65570355 5.8046875 81.6796875 C5.8084164 79.61988461 5.81126395 77.56007995 5.81326294 75.50027466 C5.8209091 70.0717888 5.84056601 64.6434095 5.8626709 59.21496582 C5.8831082 53.67848146 5.89226012 48.14197993 5.90234375 42.60546875 C5.92381098 31.73693228 5.95795874 20.86847499 6 10 C5.34 10 4.68 10 4 10 C3.566875 10.8971875 3.566875 10.8971875 3.125 11.8125 C2 14 2 14 0 17 C-0.24333707 19.45361203 -0.24333707 19.45361203 -0.125 22.18359375 C-0.10953125 23.19357422 -0.0940625 24.20355469 -0.078125 25.24414062 C-0.02613718 27.36914296 0.02594581 29.49414298 0.078125 31.61914062 C0.09359375 32.63041016 0.1090625 33.64167969 0.125 34.68359375 C0.14820313 35.60712646 0.17140625 36.53065918 0.1953125 37.48217773 C-0.010662 40.13744656 -0.64919853 41.72949684 -2 44 C-2.99 44 -3.98 44 -5 44 C-13.16161642 35.53978786 -13.33336666 22.66103395 -13.3984375 11.6640625 C-12.97846368 7.80195027 -11.94871352 5.33034109 -10 2 C-9.34 2 -8.68 2 -8 2 C-8 1.34 -8 0.68 -8 0 C-5.04172295 -1.47913852 -3.19029017 -0.7414858 0 0 Z " fill="#030303" transform="translate(247,341)"/>
<path d="M0 0 C1.0625 1.875 1.0625 1.875 2 4 C1.67 4.66 1.34 5.32 1 6 C0.90293287 8.14404169 0.87021464 10.29126751 0.875 12.4375 C0.87242187 13.59121094 0.86984375 14.74492187 0.8671875 15.93359375 C0.86104078 19.04125667 0.86104078 19.04125667 2 22 C4.68636197 21.02992484 6.84578404 20.11792985 9.125 18.375 C11 17 11 17 14 17 C16.10046807 20.64081132 18.11900578 24.23801156 20 28 C14.06 27.67 8.12 27.34 2 27 C2 25.68 2 24.36 2 23 C-1.11453927 22.01228731 -3.74790162 21.51746299 -7 22 C-9.52727089 24.12102599 -11.38433159 26.36714584 -13.37109375 28.99609375 C-13.90863281 29.65738281 -14.44617188 30.31867188 -15 31 C-15.66 31 -16.32 31 -17 31 C-17.33 31.99 -17.66 32.98 -18 34 C-18.66 33.67 -19.32 33.34 -20 33 C-20 35.64 -20 38.28 -20 41 C-19.34 41 -18.68 41 -18 41 C-17.54625 41.78375 -17.0925 42.5675 -16.625 43.375 C-14.80739548 46.31113039 -14.1793696 46.85922951 -11 48 C-7.49130586 48.24172707 -7.49130586 48.24172707 -3.75 48.125 C-1.85507812 48.09792969 -1.85507812 48.09792969 0.078125 48.0703125 C1.04234375 48.04710937 2.0065625 48.02390625 3 48 C4.58158962 44.99112219 5.43945339 42.36327963 6 39 C3.03 38.01 0.06 37.02 -3 36 C-3 35.34 -3 34.68 -3 34 C4.59 33.67 12.18 33.34 20 33 C20 34.98 20 36.96 20 39 C16.37 39 12.74 39 9 39 C10.04216038 46.0108971 10.97285301 49.97285301 16 55 C15.05016642 56.50539661 14.08988109 58.00420347 13.125 59.5 C12.59132813 60.3353125 12.05765625 61.170625 11.5078125 62.03125 C11.01023437 62.6809375 10.51265625 63.330625 10 64 C9.34 64 8.68 64 8 64 C7.731875 64.763125 7.46375 65.52625 7.1875 66.3125 C6.04865495 68.88988618 5.18583329 70.26954864 3 72 C2.34 72 1.68 72 1 72 C-1.18605079 65.03859556 -3.3283814 58.10437904 -5 51 C-7.97 50.505 -7.97 50.505 -11 50 C-10.79503906 51.15757812 -10.59007812 52.31515625 -10.37890625 53.5078125 C-10.10675544 55.04687228 -9.83462088 56.58593493 -9.5625 58.125 C-9.42779297 58.88554687 -9.29308594 59.64609375 -9.15429688 60.4296875 C-8.41440873 64.61637161 -7.69026923 68.80477147 -7 73 C-7.99 73.495 -7.99 73.495 -9 74 C-9.27972656 72.92363281 -9.55945313 71.84726563 -9.84765625 70.73828125 C-14.61050781 53.11370371 -21.89330983 37.75922607 -38 28 C-39.97949882 26.8985363 -41.93064739 25.92576301 -44 25 C-44 24.67 -44 24.34 -44 24 C-38.88523181 23.36065398 -35.32745622 25.59466453 -31 28 C-31 28.66 -31 29.32 -31 30 C-28.66785852 31.20628008 -26.50357861 32.1654738 -24 33 C-23.67 32.01 -23.34 31.02 -23 30 C-21.6171875 28.67578125 -21.6171875 28.67578125 -19.875 27.3125 C-11.66074675 20.48964066 -2.50944531 10.59543577 0 0 Z " fill="#0E0E0E" transform="translate(312,136)"/>
<path d="M0 0 C2.97 0 5.94 0 9 0 C9 2.97 9 5.94 9 9 C11.64 9 14.28 9 17 9 C17.226875 8.4225 17.45375 7.845 17.6875 7.25 C19.35981581 4.3831729 21.27219731 2.86288964 24 1 C24.99 1 25.98 1 27 1 C26.75831078 5.10871679 26.42202313 7.45385242 23.875 10.75 C20.39809333 13.47105739 16.57565857 16 12 16 C11.89042969 16.55945313 11.78085937 17.11890625 11.66796875 17.6953125 C8.40945111 28.93815115 -1.83235279 37.24016874 -10 45 C-13 44 -13 44 -13.96728516 42.1809082 C-14.8711825 39.56293578 -15.76980742 36.94690976 -16.625 34.3125 C-16.93767822 33.36673096 -17.25035645 32.42096191 -17.57250977 31.4465332 C-19.95322943 23.9049203 -21.09342532 16.94115228 -21 9 C-19.02 9 -17.04 9 -15 9 C-12.42718118 16.22839572 -10.63304408 23.50652821 -9 31 C-4.64910713 27.67643533 -4.64910713 27.67643533 -2 23 C-1.34 23 -0.68 23 0 23 C0.268125 22.278125 0.53625 21.55625 0.8125 20.8125 C1.98982498 18.02409874 3.39145884 15.55904276 5 13 C3.7625 12.01 3.7625 12.01 2.5 11 C-0.85305515 6.97633382 -0.43160977 5.09299533 0 0 Z " fill="#E9E9E9" transform="translate(322,177)"/>
<path d="M0 0 C1.68359375 1.609375 1.68359375 1.609375 3.4375 3.75 C5.39201497 6.10703716 7.2177967 8.19601703 9.5 10.25 C9.995 10.8275 10.49 11.405 11 12 C10.81274414 13.95092773 10.81274414 13.95092773 10 16 C8.86109898 16.88383737 7.6884333 17.72485358 6.49609375 18.53515625 C2.33042053 22.52198124 2.27296857 26.52007516 2.09765625 31.99609375 C2.02772207 35.47784387 2.03929176 38.9553102 2.0625 42.4375 C2.0493815 44.23635392 2.03313689 46.03518793 2.01367188 47.83398438 C1.9729552 52.2232528 1.97493242 56.61063431 2 61 C-0.76264289 61.59732819 -3.16032769 62 -6 62 C-5.98839844 60.86046875 -5.97679687 59.7209375 -5.96484375 58.546875 C-5.93213438 54.28965907 -5.95227265 50.03400357 -5.98779297 45.77685547 C-5.99586799 43.93994874 -5.98990606 42.10292148 -5.96923828 40.26611328 C-5.47146952 29.71929593 -5.47146952 29.71929593 -8.8828125 20.10546875 C-11.03706772 17.97845926 -11.03706772 17.97845926 -13.3828125 16.4375 C-14.18332031 15.7259375 -14.18332031 15.7259375 -15 15 C-14.76569056 10.62975793 -11.58821957 8.14483758 -8.625 5.25 C-8.13 4.74339844 -7.635 4.23679687 -7.125 3.71484375 C-3.38011708 0 -3.38011708 0 0 0 Z " fill="#F5F5F5" transform="translate(258,91)"/>
<path d="M0 0 C2.31 0 4.62 0 7 0 C7 0.99 7 1.98 7 3 C7.56203125 3.10183594 8.1240625 3.20367187 8.703125 3.30859375 C13.22896377 4.67096358 16.81013799 7.5723843 20 11 C21.16933812 13.9435063 21.04962449 16.03089648 20 19 C18.30739858 21.68376442 16.44693415 23.97145355 14 26 C13.34 26 12.68 26 12 26 C12 28.64 12 31.28 12 34 C11.67 34 11.34 34 11 34 C11 32.02 11 30.04 11 28 C9.35 28.33 7.7 28.66 6 29 C5.67 30.65 5.34 32.3 5 34 C4.67 34 4.34 34 4 34 C4 32.02 4 30.04 4 28 C3.29875 27.979375 2.5975 27.95875 1.875 27.9375 C-2.23756569 26.59644597 -4.91470775 23.78645171 -7 20 C-6.84765625 17.87890625 -6.84765625 17.87890625 -6 16 C-0.39602937 12.6614643 4.5934581 12.65195849 11 13 C11.33 14.98 11.66 16.96 12 19 C13.65 16.36 15.3 13.72 17 11 C5.78 11 -5.44 11 -17 11 C-17 9.02 -17 7.04 -17 5 C-11.72 4.34 -6.44 3.68 -1 3 C-0.67 2.01 -0.34 1.02 0 0 Z " fill="#E3E3E3" transform="translate(201,158)"/>
<path d="M0 0 C0 1.98 0 3.96 0 6 C-3.63 6 -7.26 6 -11 6 C-9.95783962 13.0108971 -9.02714699 16.97285301 -4 22 C-4.94983358 23.50539661 -5.91011891 25.00420347 -6.875 26.5 C-7.40867187 27.3353125 -7.94234375 28.170625 -8.4921875 29.03125 C-8.98976563 29.6809375 -9.48734375 30.330625 -10 31 C-10.66 31 -11.32 31 -12 31 C-12.268125 31.763125 -12.53625 32.52625 -12.8125 33.3125 C-13.95134505 35.88988618 -14.81416671 37.26954864 -17 39 C-17.66 39 -18.32 39 -19 39 C-21.44408524 31.6450086 -23.47458553 24.7498635 -24 17 C-22.88625 16.7525 -21.7725 16.505 -20.625 16.25 C-17.02779051 15.38554085 -17.02779051 15.38554085 -15.625 13.1875 C-14.94418934 10.80466269 -14.40742388 8.44454326 -14 6 C-16.97 5.01 -19.94 4.02 -23 3 C-23 2.34 -23 1.68 -23 1 C-19.35418328 0.83296855 -15.70834395 0.66643581 -12.0625 0.5 C-11.02158203 0.45230469 -9.98066406 0.40460938 -8.90820312 0.35546875 C-7.91884766 0.31035156 -6.92949219 0.26523438 -5.91015625 0.21875 C-4.99371338 0.17685547 -4.07727051 0.13496094 -3.13305664 0.09179688 C-1 0 -1 0 0 0 Z " fill="#040404" transform="translate(332,169)"/>
<path d="M0 0 C0 0.66 0 1.32 0 2 C1.11375 2.144375 2.2275 2.28875 3.375 2.4375 C7 3 7 3 9 4 C9 5.32 9 6.64 9 8 C8.34 8 7.68 8 7 8 C7 8.66 7 9.32 7 10 C6.1850708 10.72985107 5.3701416 11.45970215 4.53051758 12.21166992 C1.42471854 15.63389191 1.40800109 17.07044768 1.51171875 21.61328125 C1.52783203 22.86044922 1.54394531 24.10761719 1.56054688 25.39257812 C1.62338867 27.33293945 1.62338867 27.33293945 1.6875 29.3125 C1.71005859 30.62541016 1.73261719 31.93832031 1.75585938 33.29101562 C1.81472275 36.5285013 1.89691196 39.76367 2 43 C1.01 43 0.02 43 -1 43 C-9.16161642 34.53978786 -9.33336666 21.66103395 -9.3984375 10.6640625 C-8.97476387 6.76792654 -8.054057 4.31655057 -6 1 C-4 0 -4 0 0 0 Z " fill="#F1F1F1" transform="translate(243,342)"/>
<path d="M0 0 C7.59 0.33 15.18 0.66 23 1 C19.7321794 3.17854707 16.61941735 4.49760034 13 6 C13.57725676 9.89648316 15.31875268 12.1697945 18 15 C20.61818456 16.33298974 20.61818456 16.33298974 23 17 C23.2248832 22.4042243 22.4886411 26.81275243 21 31.9375 C20.80921875 32.62134766 20.6184375 33.30519531 20.421875 34.00976562 C19.95595063 35.67544526 19.47911589 37.33806675 19 39 C18.01 39 17.02 39 16 39 C10.77835315 33.76763108 6.9849418 27.71611906 4 21 C5.90429688 18.75390625 5.90429688 18.75390625 7.80859375 16.5078125 C10.29671731 13.35890858 10.08536092 10.92660243 10 7 C6.7 6.67 3.4 6.34 0 6 C0 4.02 0 2.04 0 0 Z " fill="#050505" transform="translate(182,169)"/>
<path d="M0 0 C0.33 0 0.66 0 1 0 C0.99097656 0.72445312 0.98195313 1.44890625 0.97265625 2.1953125 C1.04795578 8.02691991 1.04795578 8.02691991 3.625 13.06640625 C5.3579512 14.51635534 7.07960368 15.81166077 9 17 C8.34 17.66 7.68 18.32 7 19 C5.02 18.01 3.04 17.02 1 16 C1 24.58 1 33.16 1 42 C1.99 42.33 2.98 42.66 4 43 C7.16827173 47.93784155 8.92170231 53.16255207 8 59 C5.82149155 64.46779789 3.11885035 69.73912033 -1 74 C-1.66 74 -2.32 74 -3 74 C-3.33 74.99 -3.66 75.98 -4 77 C-7.0625 78.6875 -7.0625 78.6875 -10 80 C-10.33 78.68 -10.66 77.36 -11 76 C-10.030625 75.360625 -9.06125 74.72125 -8.0625 74.0625 C-5.23963731 72.3034741 -5.23963731 72.3034741 -4 71 C-3.00986311 63.29332332 -2.78847683 55.47417389 -2.5 47.71484375 C-2.45939453 46.69250137 -2.41878906 45.670159 -2.37695312 44.61683655 C-2.20569329 40.30419678 -2.04041973 35.99133395 -1.875 31.6784668 C-1.75230433 28.50299752 -1.62623613 25.32767395 -1.5 22.15234375 C-1.46455078 21.19682114 -1.42910156 20.24129852 -1.39257812 19.25682068 C-1.13568778 12.81375306 -0.6408235 6.41606059 0 0 Z " fill="#0D0D0D" transform="translate(270,245)"/>
<path d="M0 0 C2.97 0.495 2.97 0.495 6 1 C8.52653315 7.16645379 9.31281522 11.43592388 8 18 C7.34 18 6.68 18 6 18 C5.67 19.32 5.34 20.64 5 22 C2.03824877 21.38722388 0.61941217 20.74627478 -2 19 C-2 18.34 -2 17.68 -2 17 C-3.65 16.67 -5.3 16.34 -7 16 C-7.33 17.65 -7.66 19.3 -8 21 C-9 19 -9 19 -9 16 C-10.98 15.34 -12.96 14.68 -15 14 C-14.25 8.25 -14.25 8.25 -12 6 C-11.01 6 -10.02 6 -9 6 C-9 5.34 -9 4.68 -9 4 C-8.43410156 3.87882813 -7.86820313 3.75765625 -7.28515625 3.6328125 C-6.18494141 3.38144531 -6.18494141 3.38144531 -5.0625 3.125 C-4.33160156 2.96257812 -3.60070312 2.80015625 -2.84765625 2.6328125 C-0.79299706 2.17038477 -0.79299706 2.17038477 0 0 Z " fill="#808080" transform="translate(194,137)"/>
<path d="M0 0 C0.48919922 1.03060547 0.48919922 1.03060547 0.98828125 2.08203125 C1.64376953 3.43361328 1.64376953 3.43361328 2.3125 4.8125 C2.74175781 5.70582031 3.17101562 6.59914062 3.61328125 7.51953125 C4.88221789 9.78931933 6.06556898 11.29248171 8 13 C7.39671875 13.10957031 6.7934375 13.21914062 6.171875 13.33203125 C1.59949278 14.23913288 -1.2897317 15.11423577 -5 18 C-9.00266675 17.66862454 -11.15319938 15.33901704 -14 12.6875 C-14.845625 11.90761719 -15.69125 11.12773437 -16.5625 10.32421875 C-18.74139441 8.24658706 -20.88351449 6.14098187 -23 4 C-22.67 3.01 -22.34 2.02 -22 1 C-14.63959083 0.20274098 -7.40239645 -0.12886183 0 0 Z " fill="#060606" transform="translate(173,150)"/>
<path d="M0 0 C2.5 0.5 2.5 0.5 3.87109375 1.9375 C6.34642282 4.31191637 9.19548464 4.76082335 12.44140625 5.65625 C14.5 6.5 14.5 6.5 16.5 9.5 C16.57905064 11.83199388 16.58798769 14.16832622 16.5 16.5 C14.19 16.5 11.88 16.5 9.5 16.5 C9.17 17.16 8.84 17.82 8.5 18.5 C8.5 17.84 8.5 17.18 8.5 16.5 C7.448125 17.139375 6.39625 17.77875 5.3125 18.4375 C2.39171588 20.11754452 -0.1171743 21.08996052 -3.5 21.5 C-5.85616475 17.96575288 -5.7981228 16.31355898 -5.8125 12.125 C-5.82925781 11.00351563 -5.84601563 9.88203125 -5.86328125 8.7265625 C-5.38605217 4.48794719 -4.50593717 0.90118743 0 0 Z " fill="#EFEFEF" transform="translate(317.5,136.5)"/>
<path d="M0 0 C18.37132353 -0.31433824 18.37132353 -0.31433824 23 2 C21.08808439 9.88665189 12.30253649 14.66700616 6 19 C5.525625 18.38125 5.05125 17.7625 4.5625 17.125 C1.02195453 14.1889379 -2.53827956 13.72455289 -7 13 C-6.34 12.67 -5.68 12.34 -5 12 C-4.31867549 10.33927151 -3.65257873 8.672233 -3 7 C-2.34 6.34 -1.68 5.68 -1 5 C-0.35232207 2.42938689 -0.35232207 2.42938689 0 0 Z " fill="#050505" transform="translate(340,150)"/>
<path d="M0 0 C0.02505615 0.75095947 0.0501123 1.50191895 0.07592773 2.27563477 C0.19254942 5.70473533 0.31497417 9.13360553 0.4375 12.5625 C0.47681641 13.74392578 0.51613281 14.92535156 0.55664062 16.14257812 C0.2155393 25.94045906 0.2155393 25.94045906 3.41015625 34.70703125 C3.95542969 35.07183594 4.50070313 35.43664062 5.0625 35.8125 C6.031875 36.534375 7.00125 37.25625 8 38 C8 38.66 8 39.32 8 40 C1.60707674 37.70713176 -3.93221156 33.77859072 -8 28.3125 C-11.07908988 21.19210465 -10.32036737 14.58529045 -7.9921875 7.3125 C-6.49249891 3.8171628 -4.17931282 0 0 0 Z " fill="#090909" transform="translate(244,284)"/>
<path d="M0 0 C0.33 0.66 0.66 1.32 1 2 C1.66 1.67 2.32 1.34 3 1 C3 12.22 3 23.44 3 35 C2.67 35 2.34 35 2 35 C1.67 27.74 1.34 20.48 1 13 C0.01 15.64 -0.98 18.28 -2 21 C-2.969375 21.144375 -3.93875 21.28875 -4.9375 21.4375 C-5.948125 21.623125 -6.95875 21.80875 -8 22 C-9.7787408 24.83945779 -10.91435524 27.83885791 -12 31 C-12.66 31 -13.32 31 -14 31 C-15.82987418 23.51415109 -14.22799577 16.79915316 -10.34375 10.17578125 C-3.33211679 0 -3.33211679 0 0 0 Z " fill="#D7D7D7" transform="translate(245,389)"/>
<path d="M0 0 C2.31 0 4.62 0 7 0 C7 0.99 7 1.98 7 3 C7.804375 3.0928125 7.804375 3.0928125 8.625 3.1875 C12.17026157 4.40035264 14.2592392 6.44610926 17 9 C17 9.66 17 10.32 17 11 C5.78 11 -5.44 11 -17 11 C-17 9.02 -17 7.04 -17 5 C-11.72 4.34 -6.44 3.68 -1 3 C-0.67 2.01 -0.34 1.02 0 0 Z " fill="#EFEFEF" transform="translate(201,158)"/>
<path d="M0 0 C2.97 0 5.94 0 9 0 C9 2.97 9 5.94 9 9 C11.64 9 14.28 9 17 9 C17.226875 8.4225 17.45375 7.845 17.6875 7.25 C19.35981581 4.3831729 21.27219731 2.86288964 24 1 C24.99 1 25.98 1 27 1 C26.74126898 5.39842734 26.43893111 7.49522922 23.5 10.875 C22.675 11.57625 21.85 12.2775 21 13 C20.67 13.33 20.34 13.66 20 14 C18.54704215 14.20839236 17.0868369 14.36753581 15.625 14.5 C12.82678686 14.75521162 10.69189489 15.1027017 8 16 C7.6596875 15.1028125 7.6596875 15.1028125 7.3125 14.1875 C5.65731747 11.42886244 3.79815679 10.50669981 1 9 C0 8 0 8 -0.09765625 6.15234375 C-0.06510417 4.1015625 -0.03255208 2.05078125 0 0 Z " fill="#F0F0F0" transform="translate(322,177)"/>
<path d="M0 0 C8.00603809 7.70691139 13.44675687 16.25459612 14.25 27.5 C14 30 14 30 13 32 C12.01 31.67 11.02 31.34 10 31 C9.296875 29.22265625 9.296875 29.22265625 8.75 27.0625 C8.09911637 24.87642408 8.09911637 24.87642408 7 23 C3.45136841 21.38864654 3.45136841 21.38864654 0 21 C0.020625 19.88625 0.04125 18.7725 0.0625 17.625 C0.26380718 14.16784079 0.26380718 14.16784079 -1 12 C-1.0952699 10.52331663 -1.12985959 9.04224543 -1.125 7.5625 C-1.12757813 6.78003906 -1.13015625 5.99757813 -1.1328125 5.19140625 C-1 3 -1 3 0 0 Z " fill="#E7E7E7" transform="translate(267,388)"/>
<path d="M0 0 C3.56800505 0.04071903 5.02764432 0.18476376 8.1875 2 C12.33399727 6.649103 13.77440529 9.80296239 13.53515625 16.0234375 C13.07570156 19.71166283 12.18576253 22.10847926 10.25 25.3125 C7.5625 26.25 7.5625 26.25 5.25 26.3125 C5.25 25.6525 5.25 24.9925 5.25 24.3125 C4.59 24.3125 3.93 24.3125 3.25 24.3125 C1.25 21.3125 1.25 21.3125 1.25 18.3125 C3.56 18.3125 5.87 18.3125 8.25 18.3125 C8.15798842 15.00008304 7.78890382 12.27232501 6.25 9.3125 C3.42866218 7.81961419 0.77924007 7.0225473 -2.31640625 6.26171875 C-4.75 5.3125 -4.75 5.3125 -5.65234375 3.26953125 C-5.68457031 2.62371094 -5.71679688 1.97789062 -5.75 1.3125 C-4.10962605 -0.32787395 -2.25523159 0.06338669 0 0 Z " fill="#F0F0F0" transform="translate(325.75,134.6875)"/>
<path d="M0 0 C2.97 0 5.94 0 9 0 C8.38162544 8.5335689 8.38162544 8.5335689 6.59375 10.71875 C2.77843769 13.78596186 -1.08733972 14.40735422 -5.94140625 14.2421875 C-9.4895103 13.82476349 -11.95402158 12.85147708 -15 11 C-17.10812442 7.83781338 -18 4.82402809 -18 1 C-14.65340142 1.56612696 -13.32058732 2.46222353 -11.1875 5.0625 C-8.58821343 7.84792474 -8.22080052 7.97863221 -4.125 8.375 C-3.09375 8.25125 -2.0625 8.1275 -1 8 C-0.02391783 5.07175348 0.08226668 3.04386724 0 0 Z " fill="#F5F5F5" transform="translate(183,177)"/>
<path d="M0 0 C3.48014511 1.41894328 4.88059237 2.98127271 6.875 6.125 C8.33019026 8.28388381 8.33019026 8.28388381 10 10 C13.25696104 10.67166707 13.25696104 10.67166707 16 10 C16.66 8.02 17.32 6.04 18 4 C20.97 4.66 23.94 5.32 27 6 C26.47437173 9.78452355 25.73485867 12.26514133 23 15 C20.875 15.75 20.875 15.75 18 16 C17.30261719 16.06316406 16.60523438 16.12632812 15.88671875 16.19140625 C10.43477897 16.47545689 7.21798344 15.79618509 3 12 C2.125 9.75 2.125 9.75 2 8 C1.34 8 0.68 8 0 8 C0 5.36 0 2.72 0 0 Z " fill="#EFEFEF" transform="translate(292,169)"/>
<path d="M0 0 C0.33 1.98 0.66 3.96 1 6 C12.22 6 23.44 6 35 6 C33.44253506 9.11492987 31.87174088 12.07031862 30 15 C29.67 15 29.34 15 29 15 C29 12.69 29 10.38 29 8 C19.43 7.67 9.86 7.34 0 7 C-0.33 8.65 -0.66 10.3 -1 12 C-0.28972656 11.98839844 0.42054688 11.97679687 1.15234375 11.96484375 C2.07144531 11.95582031 2.99054688 11.94679687 3.9375 11.9375 C4.85402344 11.92589844 5.77054688 11.91429687 6.71484375 11.90234375 C9 12 9 12 10 13 C10.1875 15.9375 10.1875 15.9375 10 19 C9.34 19.66 8.68 20.32 8 21 C8.33 18.69 8.66 16.38 9 14 C6.03 14 3.06 14 0 14 C0.20625 15.11375 0.4125 16.2275 0.625 17.375 C0.74875 18.57125 0.8725 19.7675 1 21 C-1 23 -1 23 -4.3125 23.4375 C-8 23 -8 23 -10.9375 20.625 C-13 18 -13 18 -13 16 C-12.01 16 -11.02 16 -10 16 C-10.66 13.36 -11.32 10.72 -12 8 C-11.01 8 -10.02 8 -9 8 C-7.78306124 10.43387753 -7.68040104 12.41838846 -7.4375 15.125 C-7.35371094 16.03507812 -7.26992187 16.94515625 -7.18359375 17.8828125 C-7.12300781 18.58148438 -7.06242188 19.28015625 -7 20 C-5.02 20.33 -3.04 20.66 -1 21 C-1.33 20.01 -1.66 19.02 -2 18 C-2.07973476 16.66474283 -2.10771338 15.32587917 -2.09765625 13.98828125 C-2.09443359 13.23095703 -2.09121094 12.47363281 -2.08789062 11.69335938 C-2.07951172 10.90767578 -2.07113281 10.12199219 -2.0625 9.3125 C-2.05798828 8.51521484 -2.05347656 7.71792969 -2.04882812 6.89648438 C-2.0370585 4.93095743 -2.01912348 2.96546915 -2 1 C-4.31 1 -6.62 1 -9 1 C-9 0.67 -9 0.34 -9 0 C-2.25 -1.125 -2.25 -1.125 0 0 Z " fill="#A0A0A0" transform="translate(183,163)"/>
<path d="M0 0 C2.4375 -0.375 2.4375 -0.375 5 0 C5.45375 0.47179687 5.9075 0.94359375 6.375 1.4296875 C8.84418454 3.81577448 11.69278757 4.26007933 14.94140625 5.15625 C17 6 17 6 19 9 C19.125 12.1875 19.125 12.1875 19 15 C17.68 15 16.36 15 15 15 C15 14.34 15 13.68 15 13 C15.66 13 16.32 13 17 13 C16.67 11.68 16.34 10.36 16 9 C12.26512223 9.4979837 10.18762365 9.87491756 7 12 C4.3125 12.125 4.3125 12.125 2 12 C2 11.34 2 10.68 2 10 C0.35 9.67 -1.3 9.34 -3 9 C-2.5020163 5.26512223 -2.12508244 3.18762365 0 0 Z " fill="#686868" transform="translate(315,137)"/>
<path d="M0 0 C0.33 0.66 0.66 1.32 1 2 C12.55 2 24.1 2 36 2 C36 2.33 36 2.66 36 3 C28.74 3 21.48 3 14 3 C14 3.66 14 4.32 14 5 C15.11375 5.12375 16.2275 5.2475 17.375 5.375 C21 6 21 6 23 8 C20.36 7.67 17.72 7.34 15 7 C14.34 8.98 13.68 10.96 13 13 C10.4375 13.5625 10.4375 13.5625 7 13 C4.18393182 10.31883329 1.89874591 7.39302524 0 4 C0 2.68 0 1.36 0 0 Z " fill="#8C8C8C" transform="translate(295,167)"/>
<path d="M0 0 C3.08604422 0.43061082 5.75091296 0.89324841 8.625 2.125 C11.35441445 3.13057374 12.31278706 2.95352717 15 2 C16.33143718 1.6591717 17.66457061 1.32483418 19 1 C19.05447047 2.41623216 19.09300508 3.83308191 19.125 5.25 C19.14820313 6.03890625 19.17140625 6.8278125 19.1953125 7.640625 C18.9828378 10.20731941 18.28654105 11.7916067 17 14 C14.03824877 13.38722388 12.61941217 12.74627478 10 11 C10 10.34 10 9.68 10 9 C9.37351563 8.79503906 8.74703125 8.59007812 8.1015625 8.37890625 C7.28429687 8.10949219 6.46703125 7.84007812 5.625 7.5625 C4.81289062 7.29566406 4.00078125 7.02882812 3.1640625 6.75390625 C1 6 1 6 -1 5 C-0.67 3.35 -0.34 1.7 0 0 Z " fill="#F3F3F3" transform="translate(182,145)"/>
<path d="M0 0 C2.97 0 5.94 0 9 0 C9.33 6.6 9.66 13.2 10 20 C8.02 20 6.04 20 4 20 C3.67 15.38 3.34 10.76 3 6 C1.02 6 -0.96 6 -3 6 C-3 5.34 -3 4.68 -3 4 C-2.34 4 -1.68 4 -1 4 C-0.67 2.68 -0.34 1.36 0 0 Z " fill="#F6F6F6" transform="translate(172,164)"/>
<path d="M0 0 C2.30368425 3.45552638 2.24325164 4.81019862 2.1875 8.875 C2.17783203 10.41800781 2.17783203 10.41800781 2.16796875 11.9921875 C2.01326897 14.76239292 1.62248889 17.30088817 1 20 C2.98 20 4.96 20 7 20 C7.33 15.71 7.66 11.42 8 7 C8.99 7.33 9.98 7.66 11 8 C10.34 10.31 9.68 12.62 9 15 C9.62648438 14.69964844 10.25296875 14.39929688 10.8984375 14.08984375 C11.71570313 13.70957031 12.53296875 13.32929688 13.375 12.9375 C14.18710937 12.55464844 14.99921875 12.17179688 15.8359375 11.77734375 C16.55007813 11.52082031 17.26421875 11.26429688 18 11 C18.66 11.33 19.32 11.66 20 12 C19.34 13.32 18.68 14.64 18 16 C18 15.34 18 14.68 18 14 C14.47015232 15.52425241 12.35566038 16.49022013 10.125 19.6875 C8 22 8 22 5.9765625 22.3203125 C3.98152815 22.31331238 1.98815525 22.1656796 0 22 C-0.91892116 18.32431536 -0.95904856 16.83619425 0 13 C-2.97 13 -5.94 13 -9 13 C-9 14.98 -9 16.96 -9 19 C-9.33 19 -9.66 19 -10 19 C-10 16.36 -10 13.72 -10 11 C-6.37 11 -2.74 11 1 11 C0.67 7.37 0.34 3.74 0 0 Z " fill="#9B9B9B" transform="translate(331,164)"/>
<path d="M0 0 C2.10046807 3.64081132 4.11900578 7.23801156 6 11 C0.06 10.67 -5.88 10.34 -12 10 C-12 8.35 -12 6.7 -12 5 C-11.2575 4.731875 -10.515 4.46375 -9.75 4.1875 C-6.98725443 3.12651121 -6.98725443 3.12651121 -4.875 1.375 C-3 0 -3 0 0 0 Z " fill="#151515" transform="translate(326,153)"/>
<path d="M0 0 C0.45375 0.78375 0.9075 1.5675 1.375 2.375 C3.17738218 5.28654045 3.86280103 5.84362632 7 7 C10.05014928 7.24110759 10.05014928 7.24110759 13.25 7.125 C14.86648438 7.09792969 14.86648438 7.09792969 16.515625 7.0703125 C17.33546875 7.04710937 18.1553125 7.02390625 19 7 C16.77949944 9.22050056 16.0402186 9.57774742 13 10 C10.99573123 9.69337679 8.99492593 9.36246605 7 9 C7.20496094 10.15757812 7.40992188 11.31515625 7.62109375 12.5078125 C7.89324456 14.04687228 8.16537912 15.58593493 8.4375 17.125 C8.57220703 17.88554687 8.70691406 18.64609375 8.84570312 19.4296875 C9.58559127 23.61637161 10.30973077 27.80477147 11 32 C10.01 32.495 10.01 32.495 9 33 C8.72027344 31.92363281 8.44054687 30.84726563 8.15234375 29.73828125 C5.51128653 19.98228762 2.19278834 11.72444277 -3 3 C-3.33 2.34 -3.66 1.68 -4 1 C-2 0 -2 0 0 0 Z " fill="#333333" transform="translate(294,177)"/>
<path d="M0 0 C0 1.98 0 3.96 0 6 C-3.63 6 -7.26 6 -11 6 C-11 7.65 -11 9.3 -11 11 C-13 12.8125 -13 12.8125 -15 14 C-15.66 13.67 -16.32 13.34 -17 13 C-16.505 12.5875 -16.01 12.175 -15.5 11.75 C-13.56613908 9.87797662 -13.56613908 9.87797662 -14 6 C-16.97 5.01 -19.94 4.02 -23 3 C-23 2.34 -23 1.68 -23 1 C-19.35418328 0.83296855 -15.70834395 0.66643581 -12.0625 0.5 C-11.02158203 0.45230469 -9.98066406 0.40460938 -8.90820312 0.35546875 C-7.91884766 0.31035156 -6.92949219 0.26523438 -5.91015625 0.21875 C-4.99371338 0.17685547 -4.07727051 0.13496094 -3.13305664 0.09179688 C-1 0 -1 0 0 0 Z " fill="#0D0D0D" transform="translate(332,169)"/>
<path d="M0 0 C1.65 0.33 3.3 0.66 5 1 C5 1.66 5 2.32 5 3 C8.13498292 4.85776765 10.37471432 5.20140476 14 5 C13.67 5.99 13.34 6.98 13 8 C11.27192682 8.33895656 9.54248026 8.67091525 7.8125 9 C6.36810547 9.2784375 6.36810547 9.2784375 4.89453125 9.5625 C2.2065794 9.96877612 -0.28771019 10.07933572 -3 10 C-3.33 11.65 -3.66 13.3 -4 15 C-4.33 15 -4.66 15 -5 15 C-4.38066465 7.44410876 -4.38066465 7.44410876 -2.5 5.25 C-1.7575 4.63125 -1.7575 4.63125 -1 4 C-0.28552357 1.89667109 -0.28552357 1.89667109 0 0 Z " fill="#0F0F0F" transform="translate(187,153)"/>
<path d="M0 0 C2.3419596 2.22275806 4.21860503 4.58577739 6.125 7.1875 C10.99432622 13.5011179 16.34293516 19.32674403 24 22 C23.34 22.33 22.68 22.66 22 23 C21.34 22.67 20.68 22.34 20 22 C20 23.98 20 25.96 20 28 C19.67 28 19.34 28 19 28 C18.7525 26.453125 18.7525 26.453125 18.5 24.875 C17.11071273 19.88573475 13.2944949 17.53417719 9 15 C8.01 14.67 7.02 14.34 6 14 C6 13.01 6 12.02 6 11 C3.03 11 0.06 11 -3 11 C-2.67 10.01 -2.34 9.02 -2 8 C-1.34 8 -0.68 8 0 8 C0 5.36 0 2.72 0 0 Z " fill="#202020" transform="translate(202,147)"/>
<path d="M0 0 C0.33 0 0.66 0 1 0 C0.99097656 0.72445312 0.98195313 1.44890625 0.97265625 2.1953125 C1.04795578 8.02691991 1.04795578 8.02691991 3.625 13.06640625 C5.3579512 14.51635534 7.07960368 15.81166077 9 17 C8.34 17.66 7.68 18.32 7 19 C5.02 18.01 3.04 17.02 1 16 C1 23.92 1 31.84 1 40 C-3.97526979 32.53709532 -1.73360622 22.49792133 -1.0625 14 C-0.96086659 12.63937665 -0.85994915 11.27869962 -0.75976562 9.91796875 C-0.51353059 6.61138394 -0.26007416 3.30552025 0 0 Z " fill="#292929" transform="translate(270,245)"/>
<path d="M0 0 C0.33 1.98 0.66 3.96 1 6 C12.22 6 23.44 6 35 6 C33.44253506 9.11492987 31.87174088 12.07031862 30 15 C29.67 15 29.34 15 29 15 C29 12.69 29 10.38 29 8 C19.43 7.67 9.86 7.34 0 7 C-0.33 8.65 -0.66 10.3 -1 12 C-1.33 12 -1.66 12 -2 12 C-2 8.37 -2 4.74 -2 1 C-4.31 1 -6.62 1 -9 1 C-9 0.67 -9 0.34 -9 0 C-2.25 -1.125 -2.25 -1.125 0 0 Z " fill="#757575" transform="translate(183,163)"/>
<path d="M0 0 C2.07968765 0.69322922 4.15924728 1.38684407 6.23828125 2.08203125 C8.1294567 2.71063978 10.0228106 3.33272152 11.91796875 3.94921875 C18.38503852 6.06586642 24.71695315 8.38669733 31 11 C27.52176885 12.15941038 25.54104422 11.70820884 22 11 C21.67 11.66 21.34 12.32 21 13 C20.34 13 19.68 13 19 13 C19 12.01 19 11.02 19 10 C18.31421875 9.88269531 17.6284375 9.76539063 16.921875 9.64453125 C13.57694571 8.9066792 10.46732421 7.86306077 7.25 6.6875 C6.10015625 6.27886719 4.9503125 5.87023437 3.765625 5.44921875 C1 4 1 4 0.109375 1.83203125 C0.07328125 1.22746094 0.0371875 0.62289062 0 0 Z " fill="#2D2D2D" transform="translate(230,172)"/>
<path d="M0 0 C6.08695652 0.54347826 6.08695652 0.54347826 9 2 C9 3.32 9 4.64 9 6 C13.62 6 18.24 6 23 6 C23 6.33 23 6.66 23 7 C15.41 7 7.82 7 0 7 C-0.66 5.35 -1.32 3.7 -2 2 C-1.34 1.34 -0.68 0.68 0 0 Z " fill="#BABABA" transform="translate(305,157)"/>
<path d="M0 0 C0.99 0.33 1.98 0.66 3 1 C2.34 1 1.68 1 1 1 C0.71125 1.598125 0.4225 2.19625 0.125 2.8125 C-1 5 -1 5 -3 8 C-3.24334528 10.47006741 -3.24334528 10.47006741 -3.125 13.21875 C-3.10953125 14.23324219 -3.0940625 15.24773437 -3.078125 16.29296875 C-3.05234375 17.35128906 -3.0265625 18.40960938 -3 19.5 C-2.94900016 21.59354345 -2.90692764 23.68732885 -2.875 25.78125 C-2.85179687 26.71001953 -2.82859375 27.63878906 -2.8046875 28.59570312 C-3 31 -3 31 -5 34 C-5.76438163 27.55735486 -6.1693416 21.10888236 -6.3125 14.625 C-6.34214844 13.94759766 -6.37179688 13.27019531 -6.40234375 12.57226562 C-6.44526079 8.96365806 -6.06167578 7.09690092 -4.10546875 4.0234375 C-2 2 -2 2 0 2 C0 1.34 0 0.68 0 0 Z " fill="#282828" transform="translate(250,350)"/>
<path d="M0 0 C3.3 0 6.6 0 10 0 C10 2.64 10 5.28 10 8 C7.6739143 8.38063221 5.33944736 8.71269945 3 9 C2 8 2 8 1.9375 4.4375 C1.958125 3.303125 1.97875 2.16875 2 1 C1.34 0.67 0.68 0.34 0 0 Z " fill="#9E9E9E" transform="translate(202,171)"/>
<path d="M0 0 C3.875 3.75 3.875 3.75 5 6 C4.85994318 13.50920044 3.84731767 20.73388384 2 28 C1.67 28 1.34 28 1 28 C1.00523682 27.3294458 1.01047363 26.6588916 1.01586914 25.96801758 C1.03671605 22.916188 1.04968469 19.86437344 1.0625 16.8125 C1.07087891 15.75740234 1.07925781 14.70230469 1.08789062 13.61523438 C1.09111328 12.59365234 1.09433594 11.57207031 1.09765625 10.51953125 C1.10289307 9.58214111 1.10812988 8.64475098 1.11352539 7.67895508 C1.00082657 5.01950523 0.59376649 2.59079427 0 0 Z " fill="#2D2D2D" transform="translate(264,352)"/>
<path d="M0 0 C0.53625 0.2475 1.0725 0.495 1.625 0.75 C1.955 2.07 2.285 3.39 2.625 4.75 C-1.68269231 7.82692308 -1.68269231 7.82692308 -5.1875 7.4375 C-5.909375 7.210625 -6.63125 6.98375 -7.375 6.75 C-7.705 5.76 -8.035 4.77 -8.375 3.75 C-2.95961538 -0.31153846 -2.95961538 -0.31153846 0 0 Z " fill="#F4F4F4" transform="translate(197.375,139.25)"/>
<path d="M0 0 C2.9719385 1.12451727 5.33440687 2.22293791 8 4 C7.67 4.99 7.34 5.98 7 7 C3.61608307 8.06351675 2.4195366 8.21442982 -0.8125 6.5625 C-1.534375 6.046875 -2.25625 5.53125 -3 5 C-1.125 1.125 -1.125 1.125 0 0 Z " fill="#F7F7F7" transform="translate(316,139)"/>
<path d="M0 0 C1.4540625 0.0309375 1.4540625 0.0309375 2.9375 0.0625 C2.6075 2.7025 2.2775 5.3425 1.9375 8.0625 C-0.0425 8.0625 -2.0225 8.0625 -4.0625 8.0625 C-4.10491723 5.72955225 -4.10342937 3.39547433 -4.0625 1.0625 C-3.0625 0.0625 -3.0625 0.0625 0 0 Z " fill="#EBEBEB" transform="translate(306.0625,169.9375)"/>
<path d="M0 0 C0.66 0 1.32 0 2 0 C0.49074671 3.67362203 -1.68814291 5.68797533 -4.625 8.3125 C-7.82922691 11.28293274 -7.82922691 11.28293274 -9.58984375 15.140625 C-9.61565654 17.24629972 -9.61565654 17.24629972 -9 20 C-11.00413395 16.99379907 -11.91498029 15.57082798 -12 12 C-9.8125 9.4375 -9.8125 9.4375 -7 7 C-6.278125 6.236875 -5.55625 5.47375 -4.8125 4.6875 C-3 3 -3 3 -1 3 C-0.67 2.01 -0.34 1.02 0 0 Z " fill="#C3C3C3" transform="translate(207,114)"/>
<path d="M0 0 C0.99 0.33 1.98 0.66 3 1 C2.34 3.31 1.68 5.62 1 8 C1.62648438 7.69964844 2.25296875 7.39929688 2.8984375 7.08984375 C4.12433594 6.51943359 4.12433594 6.51943359 5.375 5.9375 C6.18710937 5.55464844 6.99921875 5.17179688 7.8359375 4.77734375 C8.55007813 4.52082031 9.26421875 4.26429688 10 4 C10.66 4.33 11.32 4.66 12 5 C11.34 6.32 10.68 7.64 10 9 C10 8.34 10 7.68 10 7 C5.93184627 8.84916079 2.9905167 10.66442368 0 14 C-0.66 13.67 -1.32 13.34 -2 13 C-1.34 8.71 -0.68 4.42 0 0 Z " fill="#616161" transform="translate(339,171)"/>
<path d="M0 0 C0.99 0.33 1.98 0.66 3 1 C2.34 1 1.68 1 1 1 C0.75378906 1.5775 0.50757813 2.155 0.25390625 2.75 C-1.62891229 6.12851551 -4.40551387 8.39172351 -7.22265625 11 C-9.06158277 13.06929753 -9.60803963 14.29848856 -10 17 C-10.66 16.34 -11.32 15.68 -12 15 C-11.94177239 11.24015986 -9.56783026 9.25384707 -7.00195312 6.73828125 C-6.48568359 6.24714844 -5.96941406 5.75601563 -5.4375 5.25 C-4.91736328 4.74339844 -4.39722656 4.23679687 -3.86132812 3.71484375 C-2.58089916 2.46965595 -1.29132446 1.23388498 0 0 Z " fill="#CECECE" transform="translate(255,91)"/>
<path d="M0 0 C0.99 0 1.98 0 3 0 C4.53549231 3.07098462 4.4426817 6.29580377 4.71875 9.6875 C4.87136047 12.02268455 4.87136047 12.02268455 6 14 C2.75728494 13.4409112 1.06942576 12.5867822 -1 10 C-1 9.34 -1 8.68 -1 8 C-0.01 8 0.98 8 2 8 C1.34 5.36 0.68 2.72 0 0 Z " fill="#696969" transform="translate(171,171)"/>
<path d="M0 0 C2.0625 0.4375 2.0625 0.4375 4 1 C4 2.98 4 4.96 4 7 C2.02 7.99 2.02 7.99 0 9 C-1 8 -1 8 -1.125 4.5 C-1 1 -1 1 0 0 Z " fill="#1B1B1B" transform="translate(209,77)"/>
<path d="M0 0 C0.99 0.66 1.98 1.32 3 2 C2.01 2.33 1.02 2.66 0 3 C-0.33 4.32 -0.66 5.64 -1 7 C2.96 7.99 2.96 7.99 7 9 C6.01 9.495 6.01 9.495 5 10 C4.34444881 12.52733235 4.34444881 12.52733235 4 15 C3 13 3 13 3 10 C1.02 9.34 -0.96 8.68 -3 8 C-2.25 2.25 -2.25 2.25 0 0 Z " fill="#989898" transform="translate(182,143)"/>
<path d="M0 0 C0.33 0.66 0.66 1.32 1 2 C3.80181554 3.47873598 5.51108503 4.04548046 8.6875 3.75 C11.16190506 3.14107517 11.16190506 3.14107517 13 1 C13 1.66 13 2.32 13 3 C13.66 3.33 14.32 3.66 15 4 C11.48812804 6.40814077 9.27343092 7.36629408 5 7 C5 6.34 5 5.68 5 5 C3.35 4.67 1.7 4.34 0 4 C0 2.68 0 1.36 0 0 Z " fill="#919191" transform="translate(312,142)"/>
<path d="M0 0 C1.0625 1.875 1.0625 1.875 2 4 C1.67 4.66 1.34 5.32 1 6 C0.7724985 7.87056791 0.59037189 9.74685958 0.4375 11.625 C0.31181641 13.12933594 0.31181641 13.12933594 0.18359375 14.6640625 C0.12300781 15.43492187 0.06242187 16.20578125 0 17 C-0.33 17 -0.66 17 -1 17 C-1.33 14.69 -1.66 12.38 -2 10 C-2.99 10.66 -3.98 11.32 -5 12 C-3.41037341 7.96479403 -1.71767682 3.98188718 0 0 Z " fill="#3D3D3D" transform="translate(312,136)"/>
<path d="M0 0 C1.65 0 3.3 0 5 0 C5.38218767 1.65614657 5.71395102 3.32457024 6 5 C5 6 5 6 2.4375 6.0625 C1.2309375 6.0315625 1.2309375 6.0315625 0 6 C0 4.02 0 2.04 0 0 Z " fill="#FAFAFA" transform="translate(206,172)"/>
<path d="M0 0 C2.375 1.0625 2.375 1.0625 4 2 C3.67 2.99 3.34 3.98 3 5 C0.69 4.34 -1.62 3.68 -4 3 C-4 2.34 -4 1.68 -4 1 C-5.32 0.67 -6.64 0.34 -8 0 C-5.08585452 -1.45707274 -3.13079879 -0.68877573 0 0 Z " fill="#1C1C1C" transform="translate(247,341)"/>
<path d="M0 0 C2.3125 -0.1875 2.3125 -0.1875 5 0 C6.02104551 0.97850195 7.0206121 1.97980427 8 3 C10.60611077 3.72197162 10.60611077 3.72197162 13 4 C11.375 5.1875 11.375 5.1875 9 6 C8.030625 5.505 7.06125 5.01 6.0625 4.5 C3.09975542 2.62640741 3.09975542 2.62640741 0.125 3.8125 C-0.57625 4.204375 -1.2775 4.59625 -2 5 C-1.34 3.35 -0.68 1.7 0 0 Z " fill="#A9A9A9" transform="translate(315,137)"/>
<path d="M0 0 C0.66 0 1.32 0 2 0 C1.67 0.99 1.34 1.98 1 3 C0.85222064 4.69867188 0.75252934 6.40177489 0.68359375 8.10546875 C0.62075195 9.57983398 0.62075195 9.57983398 0.55664062 11.08398438 C0.51732422 12.10814453 0.47800781 13.13230469 0.4375 14.1875 C0.39431641 15.22326172 0.35113281 16.25902344 0.30664062 17.32617188 C0.20055634 19.8839819 0.09849854 22.44188845 0 25 C-0.33 25 -0.66 25 -1 25 C-1.02886984 21.02084841 -1.04675406 17.04172347 -1.0625 13.0625 C-1.07087891 11.92619141 -1.07925781 10.78988281 -1.08789062 9.61914062 C-1.09111328 8.53955078 -1.09433594 7.45996094 -1.09765625 6.34765625 C-1.10289307 5.34742432 -1.10812988 4.34719238 -1.11352539 3.31665039 C-1 1 -1 1 0 0 Z " fill="#A1A1A1" transform="translate(242,197)"/>
<path d="M0 0 C0.99 0.33 1.98 0.66 3 1 C2.34 1 1.68 1 1 1 C0.7525 1.515625 0.505 2.03125 0.25 2.5625 C-1.39581616 5.77184151 -3.1976096 8.87585664 -5 12 C-5.33 12 -5.66 12 -6 12 C-5.38909774 5.52443609 -5.38909774 5.52443609 -3.5625 3.0625 C-2 2 -2 2 0 2 C0 1.34 0 0.68 0 0 Z " fill="#383838" transform="translate(250,350)"/>
<path d="M0 0 C5.11476819 -0.63934602 8.67254378 1.59466453 13 4 C12.01 4.66 11.02 5.32 10 6 C6.66666667 4.33333333 3.33333333 2.66666667 0 1 C0 0.67 0 0.34 0 0 Z " fill="#3D3D3D" transform="translate(268,160)"/>
<path d="M0 0 C2.31 0 4.62 0 7 0 C6.67 2.31 6.34 4.62 6 7 C1.125 2.25 1.125 2.25 0 0 Z " fill="#080808" transform="translate(295,170)"/>
<path d="M0 0 C0.886875 0.78375 1.77375 1.5675 2.6875 2.375 C5.30720519 4.57156991 7.71715601 5.93790341 11 7 C10.01 7.495 10.01 7.495 9 8 C8.34 7.67 7.68 7.34 7 7 C7 8.98 7 10.96 7 13 C6.67 13 6.34 13 6 13 C5.62875 11.3603125 5.62875 11.3603125 5.25 9.6875 C3.93240001 5.80058004 3.24358975 5.16239317 0 3 C0 2.01 0 1.02 0 0 Z " fill="#5F5F5F" transform="translate(215,162)"/>
<path d="M0 0 C2.31 0 4.62 0 7 0 C7 0.99 7 1.98 7 3 C3.37 3.33 -0.26 3.66 -4 4 C-3.01 3.67 -2.02 3.34 -1 3 C-0.67 2.01 -0.34 1.02 0 0 Z " fill="#919191" transform="translate(201,158)"/>
<path d="M0 0 C4.72065967 1.54269924 9.41664092 3.07794619 14 5 C10.61725734 6.12758089 9.23221777 5.81750262 5.8125 5.0625 C4.91144531 4.86785156 4.01039063 4.67320312 3.08203125 4.47265625 C2.05142578 4.23869141 2.05142578 4.23869141 1 4 C0.67 2.68 0.34 1.36 0 0 Z " fill="#464646" transform="translate(230,172)"/>
<path d="M0 0 C1.98 0 3.96 0 6 0 C4.8141763 3.37503669 3.72426311 5.64722731 1 8 C0.67 5.36 0.34 2.72 0 0 Z " fill="#141414" transform="translate(211,170)"/>
<path d="M0 0 C5.875 3.625 5.875 3.625 7 7 C3.06326356 5.68775452 0.77280706 4.08089673 -2 1 C-1.34 0.67 -0.68 0.34 0 0 Z " fill="#373737" transform="translate(245,317)"/>
<path d="M0 0 C1.65 0.33 3.3 0.66 5 1 C4.401875 1.2475 3.80375 1.495 3.1875 1.75 C0.71352479 3.16370012 -0.43370255 4.65055383 -2 7 C-2.66 6.67 -3.32 6.34 -4 6 C-2.68 4.02 -1.36 2.04 0 0 Z " fill="#CCCCCC" transform="translate(226,174)"/>
<path d="M0 0 C2.62187494 1.04874998 3.79371361 1.64931313 5.25 4.125 C5.4975 4.74375 5.745 5.3625 6 6 C3.50638429 4.79618552 1.31856917 3.54571278 -1 2 C-0.67 1.34 -0.34 0.68 0 0 Z " fill="#171717" transform="translate(209,158)"/>
<path d="M0 0 C0.66 1.65 1.32 3.3 2 5 C0.68 5 -0.64 5 -2 5 C-2.66 3.68 -3.32 2.36 -4 1 C-2 0 -2 0 0 0 Z " fill="#323232" transform="translate(294,177)"/>
</svg>
